<?xml version="1.0" encoding="UTF-8"?>
<svg xmlns="http://www.w3.org/2000/svg" xmlns:xlink="http://www.w3.org/1999/xlink" width="113px" height="239px" viewBox="0 0 113 239" version="1.1">
<g id="surface1">
<path style=" stroke:none;fill-rule:nonzero;fill:rgb(0%,0%,0%);fill-opacity:1;" d="M 78.640625 6.695312 C 73.53125 15.886719 72.828125 18.183594 72.628906 27.476562 C 72.527344 36.769531 71.425781 40.167969 68.222656 41.964844 C 66.617188 42.765625 66.21875 42.363281 65.214844 38.566406 C 64.613281 36.167969 61.109375 29.675781 57.402344 24.078125 C 49.488281 11.988281 48.585938 12.289062 49.289062 26.878906 C 49.886719 38.765625 51.191406 41.566406 61.609375 53.65625 C 68.921875 62.246094 71.125 64.144531 71.125 62.148438 C 71.125 61.75 73.832031 57.851562 77.136719 53.457031 C 87.753906 39.367188 89.15625 31.472656 84.648438 12.890625 C 83.347656 7.292969 82.046875 2.496094 81.746094 2.296875 C 81.542969 2.097656 80.140625 4.097656 78.640625 6.695312 Z M 78.640625 6.695312 "/>
<path style=" stroke:none;fill-rule:nonzero;fill:rgb(0%,0%,0%);fill-opacity:1;" d="M 94.96875 45.460938 C 88.957031 49.859375 82.046875 58.550781 77.835938 66.84375 C 74.933594 72.839844 74.632812 74.039062 74.832031 82.332031 C 74.933594 87.328125 75.332031 93.320312 75.835938 95.71875 L 76.636719 99.917969 L 81.746094 95.519531 C 89.859375 88.425781 92.5625 82.132812 96.171875 62.347656 C 97.875 53.054688 99.375 44.664062 99.578125 43.664062 C 99.777344 42.765625 99.875 41.964844 99.875 41.964844 C 99.777344 41.964844 97.574219 43.5625 94.96875 45.460938 Z M 94.96875 45.460938 "/>
<path style=" stroke:none;fill-rule:nonzero;fill:rgb(0%,0%,0%);fill-opacity:1;" d="M 36.0625 47.660156 C 36.0625 50.757812 41.074219 57.851562 45.378906 60.847656 C 53.09375 66.144531 53.09375 66.746094 45.28125 66.144531 C 39.972656 65.84375 36.566406 66.246094 30.652344 67.941406 L 23.039062 70.242188 L 31.054688 78.132812 C 39.871094 86.726562 47.484375 96.417969 56.5 110.707031 C 59.707031 115.804688 62.609375 119.699219 63.011719 119.5 C 64.816406 118.300781 68.519531 109.007812 69.023438 104.011719 C 71.425781 82.53125 60.007812 58.851562 42.574219 48.859375 C 36.765625 45.460938 36.0625 45.363281 36.0625 47.660156 Z M 36.0625 47.660156 "/>
<path style=" stroke:none;fill-rule:nonzero;fill:rgb(0%,0%,0%);fill-opacity:1;" d="M 25.746094 88.027344 C 24.144531 100.816406 23.742188 120.699219 24.945312 125.496094 C 25.644531 128.191406 29.152344 135.585938 32.757812 141.882812 C 37.164062 149.375 41.074219 157.96875 44.179688 166.761719 L 48.785156 180.148438 L 51.390625 175.753906 C 59.503906 161.964844 58.703125 136.984375 49.585938 116.203125 C 46.582031 109.609375 35.964844 93.523438 30.253906 87.027344 L 26.347656 82.53125 Z M 25.746094 88.027344 "/>
<path style=" stroke:none;fill-rule:nonzero;fill:rgb(0%,0%,0%);fill-opacity:1;" d="M 99.578125 90.125 C 88.457031 97.21875 78.941406 107.308594 71.226562 120.199219 L 64.914062 130.789062 L 65.617188 139.382812 C 66.015625 144.078125 66.417969 147.875 66.617188 147.875 C 67.417969 147.875 90.257812 132.589844 93.566406 129.691406 C 98.773438 125.296875 100.777344 120.5 102.683594 107.710938 C 103.582031 101.816406 105.085938 94.519531 106.1875 91.324219 C 107.289062 88.226562 108.089844 85.429688 107.890625 85.328125 C 107.691406 85.128906 103.984375 87.328125 99.578125 90.125 Z M 99.578125 90.125 "/>
<path style=" stroke:none;fill-rule:nonzero;fill:rgb(0%,0%,0%);fill-opacity:1;" d="M 14.625 134.085938 C 14.324219 136.484375 13.722656 143.980469 13.421875 150.875 C 12.621094 166.761719 14.226562 174.554688 21.039062 188.34375 C 23.742188 194.039062 26.847656 202.03125 27.847656 206.226562 L 29.652344 213.820312 L 33.757812 210.324219 C 39.570312 205.429688 42.074219 199.734375 42.074219 191.738281 C 41.972656 176.351562 33.960938 156.269531 19.734375 136.085938 L 15.328125 129.890625 Z M 14.625 134.085938 "/>
<path style=" stroke:none;fill-rule:nonzero;fill:rgb(0%,0%,0%);fill-opacity:1;" d="M 100.078125 136.785156 C 85.550781 142.179688 69.921875 152.972656 64.3125 161.363281 C 59.707031 168.257812 60.007812 169.058594 66.417969 167.261719 C 83.449219 162.363281 88.15625 160.664062 91.761719 158.066406 C 95.066406 155.667969 108.894531 139.683594 111.597656 135.085938 C 112.800781 133.089844 108.390625 133.6875 100.078125 136.785156 Z M 100.078125 136.785156 "/>
<path style=" stroke:none;fill-rule:nonzero;fill:rgb(0%,0%,0%);fill-opacity:1;" d="M 76.636719 171.757812 C 68.921875 173.65625 62.910156 176.453125 58.402344 180.25 C 55.296875 182.847656 50.789062 190.539062 49.6875 195.136719 L 48.988281 198.035156 L 53.292969 197.335938 C 65.617188 195.238281 76.535156 189.242188 88.457031 177.75 L 96.671875 169.957031 L 90.160156 169.957031 C 86.554688 169.957031 80.542969 170.757812 76.636719 171.757812 Z M 76.636719 171.757812 "/>
<path style=" stroke:none;fill-rule:nonzero;fill:rgb(0%,0%,0%);fill-opacity:1;" d="M 5.007812 174.355469 C 5.007812 174.953125 4.105469 182.546875 3.003906 191.238281 C 1.902344 200.03125 1 211.125 1 215.820312 C 1 224.8125 2.503906 235.503906 4.105469 237.402344 C 4.808594 238.199219 7.3125 238.101562 13.324219 236.800781 C 17.933594 235.902344 22.238281 234.804688 22.839844 234.402344 C 24.441406 233.503906 24.441406 219.316406 22.941406 213.023438 C 22.238281 210.425781 18.433594 200.933594 14.324219 191.839844 C 7.210938 176.351562 5.007812 172.15625 5.007812 174.355469 Z M 5.007812 174.355469 "/>
<path style=" stroke:none;fill-rule:nonzero;fill:rgb(0%,0%,0%);fill-opacity:1;" d="M 63.8125 201.929688 C 56.5 203.03125 50.488281 205.628906 42.675781 211.222656 C 35.261719 216.519531 30.953125 222.515625 30.253906 228.609375 L 29.753906 233.003906 L 34.160156 232.304688 C 47.082031 230.207031 63.011719 221.613281 74.832031 210.425781 C 79.441406 206.128906 83.148438 202.230469 83.148438 201.730469 C 83.148438 200.632812 71.828125 200.730469 63.8125 201.929688 Z M 63.8125 201.929688 "/>
</g>
</svg>
