<?xml version="1.0" encoding="UTF-8"?>
<svg xmlns="http://www.w3.org/2000/svg" xmlns:xlink="http://www.w3.org/1999/xlink" width="136px" height="176px" viewBox="0 0 136 176" version="1.1">
<g id="surface1">
<path style=" stroke:none;fill-rule:nonzero;fill:rgb(0%,0%,0%);fill-opacity:1;" d="M 64.257812 6.140625 C 64.105469 6.570312 63.890625 7.160156 63.796875 7.40625 C 63.703125 7.652344 63.519531 10.273438 63.363281 13.175781 C 63.210938 16.105469 62.992188 18.667969 62.867188 18.851562 C 62.714844 19.097656 61.292969 19.160156 57.675781 19.007812 C 53.347656 18.789062 52.175781 18.851562 48.683594 19.4375 C 46.054688 19.871094 44.046875 20.054688 42.902344 19.933594 C 40.707031 19.714844 36.71875 18.203125 35.113281 16.96875 C 34.433594 16.445312 33.785156 16.136719 33.628906 16.292969 C 33.226562 16.691406 33.9375 18.636719 34.925781 19.933594 C 35.453125 20.613281 36.285156 21.691406 36.8125 22.371094 L 37.769531 23.605469 L 34.09375 23.789062 C 32.082031 23.914062 28.21875 24.34375 25.5 24.777344 C 22.78125 25.210938 19.875 25.640625 19.070312 25.765625 C 17.308594 26.011719 17.308594 25.949219 19.410156 29.066406 C 20.246094 30.300781 21.140625 31.75 21.421875 32.304688 L 21.945312 33.261719 L 20.308594 34.1875 C 17.09375 36.007812 14.835938 37.921875 5.6875 46.652344 C 3.648438 48.566406 3.429688 49.246094 4.757812 49.648438 C 6.582031 50.234375 9.394531 50.605469 11.808594 50.605469 C 13.136719 50.605469 14.21875 50.695312 14.21875 50.789062 C 14.21875 50.882812 13.816406 51.835938 13.289062 52.886719 C 12.796875 53.933594 11.746094 57.023438 10.972656 59.707031 C 8.808594 67.234375 8.191406 68.621094 5.996094 70.96875 C 2.90625 74.238281 3.058594 74.949219 6.800781 74.300781 C 7.976562 74.082031 9.023438 74.023438 9.148438 74.113281 C 9.242188 74.238281 9.054688 75.410156 8.746094 76.738281 C 8.035156 79.792969 8.035156 88.585938 8.777344 94.820312 C 9.054688 97.195312 9.273438 99.757812 9.273438 100.558594 C 9.273438 101.390625 9.488281 102.285156 9.738281 102.625 C 10.167969 103.179688 10.292969 103.117188 12.175781 101.082031 L 14.125 98.953125 L 14.339844 101.546875 C 14.621094 104.785156 15.207031 107.4375 16.195312 109.753906 C 17.925781 113.855469 20.710938 119.8125 21.359375 120.675781 L 22.039062 121.632812 L 22.59375 120.921875 C 22.902344 120.519531 23.214844 120.242188 23.273438 120.335938 C 23.335938 120.429688 23.550781 121.261719 23.738281 122.1875 C 24.664062 127 26.984375 131.445312 32.023438 138.140625 C 35.019531 142.121094 36.164062 143.078125 36.164062 141.503906 C 36.164062 140.640625 36.75 138.851562 37.058594 138.851562 C 37.152344 138.851562 37.648438 139.929688 38.140625 141.257812 C 39.410156 144.589844 41.203125 148.445312 42.128906 149.804688 C 42.5625 150.421875 44.136719 152.363281 45.652344 154.0625 C 47.167969 155.789062 48.867188 157.796875 49.421875 158.535156 C 50.660156 160.109375 52.855469 164.273438 52.855469 165.046875 C 52.855469 165.726562 53.441406 166.3125 54.121094 166.3125 C 54.675781 166.3125 55.019531 165.726562 55.019531 164.707031 C 55.019531 164.335938 55.945312 162.699219 57.058594 161.035156 L 59.128906 157.980469 L 61.785156 160.789062 C 65.0625 164.273438 65.867188 165.664062 65.960938 168.164062 C 66.113281 171.679688 67.597656 171.742188 69.203125 168.316406 C 70.535156 165.539062 71.832031 164.214844 76.5 160.910156 C 80.332031 158.164062 82.28125 156.40625 84.195312 153.90625 C 84.691406 153.257812 85.246094 152.734375 85.433594 152.734375 C 85.648438 152.734375 86.269531 153.691406 86.824219 154.832031 C 87.378906 155.972656 88.089844 157.269531 88.367188 157.640625 C 88.925781 158.351562 88.925781 158.351562 89.449219 156.25 C 90.441406 152.273438 91.984375 149.496094 98.042969 140.855469 C 98.96875 139.496094 100.207031 137.492188 100.761719 136.382812 C 101.320312 135.269531 101.8125 134.316406 101.875 134.25 C 102.09375 134.003906 103.019531 135.023438 104.535156 137.214844 C 105.585938 138.726562 106.203125 139.40625 106.421875 139.191406 C 106.605469 139.003906 106.851562 137.308594 107.007812 135.394531 C 107.316406 131.167969 107.964844 128.882812 110.253906 123.945312 C 113.53125 116.820312 114.054688 115 114.332031 110.03125 L 114.519531 106.667969 L 115.910156 107.808594 C 116.683594 108.425781 117.917969 109.351562 118.691406 109.84375 C 120.453125 111.050781 120.605469 110.648438 119.464844 107.53125 C 118.660156 105.402344 118.628906 104.96875 118.785156 101.761719 C 118.875 99.292969 119.277344 96.792969 120.082031 93.183594 C 121.070312 88.863281 121.257812 87.566406 121.257812 84.542969 C 121.257812 82.199219 121.101562 80.503906 120.761719 79.515625 C 120.515625 78.710938 120.390625 78.066406 120.484375 78.066406 C 120.605469 78.066406 121.6875 78.558594 122.894531 79.207031 C 126.511719 81.058594 126.851562 80.347656 124.59375 75.90625 C 123.328125 73.46875 121.996094 69.949219 121.660156 68.222656 C 121.503906 67.328125 121.535156 67.234375 122.03125 67.449219 C 122.308594 67.574219 124.222656 67.726562 126.261719 67.789062 C 130.53125 67.914062 133.003906 67.328125 133.15625 66.183594 C 133.21875 65.660156 132.816406 65.351562 131.085938 64.550781 C 128.582031 63.378906 126.511719 61.308594 124.503906 57.945312 C 122.988281 55.417969 117.421875 42.582031 117.640625 42.210938 C 117.730469 42.085938 119.03125 41.964844 120.546875 41.964844 C 122.648438 41.964844 123.390625 41.839844 123.789062 41.46875 C 124.53125 40.699219 124.253906 40.082031 122.554688 38.878906 C 121.6875 38.292969 119.09375 35.824219 116.742188 33.417969 C 112.199219 28.757812 109.789062 26.90625 107.46875 26.257812 L 106.050781 25.855469 L 106.789062 24.714844 C 107.625 23.449219 108.335938 21.042969 108.675781 18.511719 L 108.894531 16.816406 L 106.699219 18.851562 C 103.886719 21.507812 101.597656 22.617188 98.910156 22.648438 C 97.023438 22.679688 96.714844 22.585938 94.796875 21.320312 C 91.921875 19.46875 90.625 19.070312 86.546875 18.914062 C 82.003906 18.699219 79.960938 19.097656 76.5 20.828125 C 73.5625 22.308594 72.789062 22.464844 71.894531 21.816406 C 71.398438 21.445312 71.339844 20.980469 71.367188 18.574219 C 71.492188 12.835938 70.410156 8.363281 68.464844 6.480469 C 67.566406 5.617188 67.132812 5.429688 65.960938 5.398438 C 64.691406 5.339844 64.507812 5.429688 64.257812 6.140625 Z M 66.980469 8.390625 C 67.875 9.347656 68.214844 10.921875 68.464844 15.117188 C 68.554688 17.0625 68.742188 18.976562 68.835938 19.347656 C 69.019531 20.148438 68.742188 20.210938 67.011719 19.714844 L 65.835938 19.40625 L 65.835938 13.578125 C 65.835938 10.335938 65.960938 7.714844 66.082031 7.714844 C 66.238281 7.714844 66.640625 8.023438 66.980469 8.390625 Z M 65.03125 22.0625 C 67.785156 22.554688 70.285156 23.386719 69.082031 23.417969 C 68.742188 23.417969 67.785156 23.234375 66.949219 22.988281 C 64.257812 22.183594 54.648438 22.492188 53.660156 23.449219 C 53.226562 23.851562 54.675781 24.160156 58.261719 24.34375 L 61.664062 24.5625 L 59.808594 24.992188 C 58.480469 25.300781 56.191406 25.394531 51.710938 25.363281 C 48.25 25.332031 45.4375 25.363281 45.4375 25.457031 C 45.4375 25.546875 46.023438 25.917969 46.765625 26.257812 C 47.816406 26.753906 47.878906 26.84375 47.136719 26.691406 C 45.53125 26.351562 43.179688 24.992188 41.820312 23.664062 C 41.078125 22.957031 40.492188 22.277344 40.492188 22.15625 C 40.492188 22.03125 42.808594 21.878906 45.683594 21.816406 C 59.964844 21.566406 62.375 21.597656 65.03125 22.0625 Z M 84.566406 22.371094 C 83.207031 22.617188 81.601562 23.019531 80.949219 23.296875 C 80.332031 23.574219 79.496094 23.757812 79.097656 23.695312 L 78.355469 23.605469 L 79.035156 23.203125 C 80.269531 22.523438 82.960938 21.9375 85 21.96875 L 87.007812 21.96875 Z M 94.519531 24.035156 C 96.960938 24.871094 99.03125 25.609375 99.125 25.734375 C 99.867188 26.445312 95.878906 28.417969 93.222656 28.605469 C 91.582031 28.757812 90.996094 28.664062 89.824219 28.078125 C 88.246094 27.339844 87.996094 26.84375 89.171875 26.84375 C 90.070312 26.84375 90.160156 26.351562 89.421875 25.546875 C 89.019531 25.085938 88.429688 24.992188 86.175781 24.992188 C 84.691406 24.992188 83.453125 24.871094 83.453125 24.714844 C 83.453125 23.972656 87.039062 23.851562 89.789062 24.53125 C 90.8125 24.777344 91.800781 24.960938 92.015625 24.992188 C 92.820312 24.992188 91.984375 24.003906 90.59375 23.296875 C 88.398438 22.15625 89.667969 22.402344 94.519531 24.035156 Z M 64.941406 27.367188 C 64.414062 28.015625 62.21875 30.207031 60.085938 32.242188 C 57.921875 34.25 56.316406 35.976562 56.503906 36.039062 C 56.6875 36.101562 57.863281 35.609375 59.097656 34.957031 C 60.769531 34.09375 62.128906 33.015625 64.257812 30.855469 C 67.753906 27.367188 67.226562 28.570312 63.332031 32.984375 C 60.457031 36.253906 58.511719 38.878906 58.976562 38.878906 C 59.839844 38.878906 63.269531 36.070312 65.0625 33.910156 C 66.207031 32.582031 67.195312 31.472656 67.289062 31.472656 C 67.628906 31.472656 65.867188 34.15625 64.042969 36.410156 C 59.746094 41.777344 54.617188 45.636719 46.671875 49.398438 C 43.519531 50.910156 39.996094 52.640625 38.851562 53.257812 C 37.675781 53.84375 36.6875 54.304688 36.660156 54.242188 C 35.824219 53.195312 33.289062 48.84375 32.917969 47.855469 C 32.207031 45.820312 32.332031 43.042969 33.195312 41.191406 C 33.84375 39.773438 37.03125 35.917969 37.277344 36.195312 C 37.367188 36.253906 37.183594 36.839844 36.9375 37.488281 C 36.660156 38.105469 36.503906 38.722656 36.597656 38.785156 C 36.875 39.09375 38.359375 37.953125 41.109375 35.328125 C 43.054688 33.507812 44.507812 32.429688 46.640625 31.347656 C 48.21875 30.546875 49.578125 29.929688 49.640625 30.023438 C 49.703125 30.082031 48.527344 31.042969 47.042969 32.152344 C 44.507812 34.003906 42.5 36.101562 43.242188 36.101562 C 44.078125 36.101562 47.230469 34.371094 51.15625 31.78125 C 53.535156 30.207031 56.316406 28.511719 57.335938 28.046875 C 59.46875 27.089844 61.507812 26.472656 61.507812 26.8125 C 61.507812 26.9375 60.304688 27.953125 58.820312 29.097656 C 55.789062 31.347656 53.132812 33.941406 53.75 33.941406 C 54.894531 33.941406 58.914062 31.535156 61.972656 29.066406 C 63.859375 27.523438 65.496094 26.257812 65.621094 26.257812 C 65.742188 26.226562 65.433594 26.753906 64.941406 27.367188 Z M 42.5 27.152344 C 47.351562 28.480469 47.445312 29.21875 42.6875 28.851562 C 38.511719 28.511719 36.8125 28.539062 36.410156 28.941406 C 36.070312 29.28125 39.101562 30.546875 40.335938 30.546875 C 40.769531 30.546875 41.109375 30.671875 41.109375 30.824219 C 41.109375 31.226562 39.964844 31.472656 37.710938 31.503906 C 36.597656 31.535156 35.296875 31.628906 34.773438 31.75 L 33.84375 31.964844 L 34.867188 32.335938 C 35.886719 32.675781 35.976562 33.324219 35.050781 33.324219 C 34.804688 33.324219 34.679688 33.449219 34.773438 33.632812 C 34.867188 33.785156 35.238281 33.941406 35.578125 33.941406 C 36.75 33.941406 36.132812 34.527344 34.742188 34.742188 C 31.25 35.265625 27.816406 34.371094 25.5625 32.398438 C 24.203125 31.226562 22.75 28.882812 22.964844 28.292969 C 23.121094 27.894531 25.5625 27.339844 29.578125 26.84375 C 32.300781 26.503906 40.894531 26.691406 42.5 27.152344 Z M 85.339844 27.738281 C 89.359375 29.4375 92.015625 31.628906 97.117188 37.429688 C 99.1875 39.773438 101.96875 42.703125 103.296875 43.96875 C 104.628906 45.234375 105.585938 46.316406 105.460938 46.40625 C 105.308594 46.5 103.578125 46.746094 101.597656 46.929688 C 96.035156 47.488281 90.253906 46.652344 85.308594 44.585938 C 79.21875 42.027344 73.8125 36.808594 71.710938 31.472656 C 70.78125 29.160156 70.96875 28.910156 72.078125 30.949219 C 73.191406 33.015625 76.160156 35.855469 78.476562 37.148438 C 80.117188 38.015625 80.117188 38.015625 79.714844 37.304688 C 79.496094 36.902344 78.449219 35.636719 77.335938 34.464844 C 76.222656 33.324219 75.449219 32.398438 75.605469 32.398438 C 75.789062 32.398438 76.746094 32.890625 77.769531 33.539062 C 80.394531 35.144531 82.652344 36.410156 82.929688 36.410156 C 83.640625 36.410156 81.324219 34.15625 78.230469 31.8125 C 73.6875 28.355469 73.75 28.417969 73.933594 28.234375 C 74.214844 27.953125 76.160156 28.910156 79.1875 30.792969 C 82.1875 32.675781 84.628906 33.785156 84.96875 33.449219 C 85.277344 33.140625 82.09375 30.421875 79.929688 29.128906 C 78.816406 28.480469 77.890625 27.863281 77.890625 27.707031 C 77.890625 27.398438 80.859375 28.292969 83.050781 29.3125 C 85.496094 30.421875 87.132812 31.535156 91.183594 34.835938 C 94.304688 37.367188 94.367188 37.429688 93.128906 35.917969 C 90.902344 33.230469 86.453125 29.21875 84.351562 27.984375 C 82.03125 26.628906 82.464844 26.503906 85.339844 27.738281 Z M 106.757812 29.621094 C 108.675781 30.269531 110.59375 31.441406 112.386719 32.984375 C 114.332031 34.679688 117.824219 38.816406 117.640625 39.15625 C 117.515625 39.308594 117.050781 39.527344 116.558594 39.648438 C 115.351562 39.898438 114.023438 39.246094 111.738281 37.304688 C 108.644531 34.652344 102.339844 32.089844 98.941406 32.089844 C 97.300781 32.089844 97.890625 31.535156 99.773438 31.347656 C 102.339844 31.042969 105.308594 31.71875 109.355469 33.507812 C 110.808594 34.125 110.933594 34.15625 110.65625 33.664062 C 109.574219 31.628906 106.265625 30.082031 101.691406 29.496094 C 99.371094 29.191406 98.96875 29.066406 99.835938 28.941406 C 101.566406 28.664062 104.96875 29.003906 106.757812 29.621094 Z M 68.496094 37.796875 C 67.476562 41.128906 67.257812 42.273438 67.660156 42.273438 C 68.09375 42.273438 69.421875 40.453125 70.039062 39.03125 C 70.410156 38.136719 70.597656 37.953125 70.8125 38.292969 C 71.277344 39 71.152344 39.679688 70.007812 42.582031 C 68.402344 46.714844 68.585938 47.578125 70.597656 45.359375 C 71.277344 44.585938 71.894531 43.445312 72.234375 42.273438 C 72.542969 41.253906 72.882812 40.421875 73.039062 40.421875 C 73.625 40.421875 73.191406 43.320312 72.359375 44.988281 C 71.398438 46.871094 70.628906 49.339844 70.90625 49.585938 C 71.554688 50.234375 73.625 47.332031 75.015625 43.816406 C 75.386719 42.796875 75.417969 42.796875 75.261719 43.660156 C 75.078125 44.679688 72.390625 50.261719 70.628906 53.320312 L 69.484375 55.261719 L 71.058594 54.152344 C 73.316406 52.515625 74.304688 51.191406 75.757812 47.765625 C 77.304688 44.183594 78.105469 43.226562 77.738281 45.359375 C 77.367188 47.671875 75.882812 50.292969 73.191406 53.503906 C 68.1875 59.394531 66.238281 62.359375 65.21875 65.507812 L 64.847656 66.710938 L 63.457031 65.351562 C 61.046875 63.039062 58.171875 59.242188 56.871094 56.652344 C 55.511719 53.933594 54.246094 49.429688 54.523438 48.320312 C 54.617188 47.917969 55.511719 46.992188 56.46875 46.25 C 59.714844 43.84375 62.035156 41.65625 65.402344 37.765625 C 68.464844 34.21875 68.773438 33.972656 69.019531 34.621094 C 69.175781 35.082031 69.019531 36.070312 68.496094 37.796875 Z M 103.113281 34.898438 C 107.59375 36.253906 111.394531 38.878906 113.898438 42.273438 C 115.289062 44.183594 116.992188 47.578125 119 52.609375 C 121.164062 57.945312 122.988281 61.527344 124.53125 63.5 C 125.242188 64.394531 125.707031 65.105469 125.582031 65.105469 C 125.492188 65.105469 124.253906 64.796875 122.894531 64.425781 C 120.730469 63.871094 120.203125 63.5625 119 62.359375 C 118.164062 61.496094 117.050781 59.765625 116.15625 57.945312 C 114.980469 55.570312 114.148438 54.398438 112.046875 52.207031 C 110.625 50.695312 108.953125 49.121094 108.335938 48.722656 C 107.191406 47.949219 106.976562 47.515625 107.6875 47.515625 C 107.902344 47.515625 108.492188 47.210938 108.921875 46.871094 L 109.789062 46.191406 L 111.148438 47.546875 C 112.726562 49.089844 112.847656 48.96875 111.675781 47.117188 C 110.222656 44.800781 108.707031 43.136719 105.925781 40.820312 C 103.605469 38.910156 103.050781 38.570312 102.03125 38.570312 C 101.195312 38.570312 100.671875 38.351562 100.144531 37.796875 C 99.742188 37.367188 99.496094 36.964844 99.558594 36.902344 C 99.835938 36.625 103.761719 38.136719 105.554688 39.1875 C 107.871094 40.574219 111.457031 44.121094 114.210938 47.734375 C 115.382812 49.308594 116.402344 50.511719 116.464844 50.480469 C 116.527344 50.417969 116.0625 49.339844 115.414062 48.101562 C 111.519531 40.359375 105.710938 35.484375 99.742188 34.898438 C 98.445312 34.773438 97.175781 34.496094 96.992188 34.28125 C 96.40625 33.664062 100.421875 34.066406 103.113281 34.898438 Z M 27.847656 36.007812 C 29.023438 36.285156 29.980469 36.625 29.980469 36.75 C 29.980469 36.871094 28.40625 36.964844 26.488281 36.933594 C 23.152344 36.871094 22.933594 36.902344 20.957031 37.890625 C 19.164062 38.753906 16.414062 41.160156 16.785156 41.53125 C 16.84375 41.625 18.019531 41.191406 19.378906 40.605469 C 22.160156 39.371094 25.003906 38.570312 26.425781 38.570312 L 27.355469 38.601562 L 26.425781 39.339844 C 25.777344 39.867188 25.128906 40.113281 24.230469 40.113281 C 22.8125 40.113281 20.246094 41.285156 19.195312 42.394531 L 18.484375 43.136719 L 19.6875 42.859375 C 21.203125 42.519531 22.253906 42.519531 22.253906 42.859375 C 22.253906 43.414062 19.410156 46.59375 18.484375 47.085938 C 17.339844 47.671875 13.785156 47.949219 11.25 47.609375 L 9.335938 47.363281 L 14.339844 42.613281 C 19.84375 37.394531 22.53125 35.484375 24.511719 35.484375 C 25.160156 35.484375 26.675781 35.699219 27.847656 36.007812 Z M 28.21875 42.335938 C 24.230469 46.40625 22.996094 48.042969 22.132812 50.539062 C 21.699219 51.777344 21.914062 51.589844 25.746094 47.671875 C 28.003906 45.386719 30.011719 43.507812 30.230469 43.507812 C 30.445312 43.507812 30.601562 43.96875 30.601562 44.710938 C 30.601562 45.726562 30.445312 46.035156 29.609375 46.621094 C 28.28125 47.515625 23.769531 52.144531 24.203125 52.144531 C 25.003906 52.144531 27.972656 50.511719 29.394531 49.339844 L 30.910156 48.074219 L 31.21875 48.90625 C 31.589844 49.925781 31.25 50.417969 27.632812 54.273438 C 25.5 56.527344 25.34375 56.773438 26.148438 56.589844 C 27.601562 56.25 28.46875 55.695312 30.722656 53.71875 C 32.207031 52.390625 32.980469 51.929688 33.195312 52.144531 C 33.691406 52.640625 32.578125 54.429688 31.09375 55.480469 C 30.414062 56.003906 28.777344 57.359375 27.507812 58.503906 C 25.285156 60.507812 25.253906 60.570312 26.273438 60.382812 C 28.160156 60.015625 30.414062 58.6875 32.082031 57.023438 C 32.980469 56.15625 33.753906 55.171875 33.875 54.859375 C 34.09375 54.183594 34.804688 54.152344 35.050781 54.800781 C 35.328125 55.539062 34.585938 56.527344 31.28125 59.921875 C 29.640625 61.589844 28.375 63.007812 28.46875 63.070312 C 28.714844 63.316406 31.835938 62.113281 32.484375 61.527344 C 32.855469 61.21875 34.125 59.796875 35.296875 58.378906 C 36.472656 56.988281 37.585938 55.847656 37.742188 55.847656 C 38.511719 55.847656 36.039062 59.367188 33.164062 62.328125 C 31.402344 64.117188 29.980469 65.597656 29.980469 65.628906 C 29.980469 65.753906 31.804688 65.136719 32.640625 64.703125 C 33.96875 64.027344 36.101562 61.648438 38.078125 58.625 C 39.75 56.09375 42.5625 53.070312 43.273438 53.070312 C 44.167969 53.070312 40.152344 59.304688 37.429688 62.113281 C 33.320312 66.371094 28.496094 69.023438 22.441406 70.351562 C 18.050781 71.308594 9.304688 71.429688 9.703125 70.535156 C 9.796875 70.351562 11.035156 67.480469 12.519531 64.179688 C 18.082031 51.527344 20.183594 47.980469 24.695312 43.507812 C 27.292969 40.945312 31.003906 38.261719 31.960938 38.261719 C 32.144531 38.261719 30.445312 40.113281 28.21875 42.335938 Z M 105.675781 42.550781 C 106.449219 43.167969 107.410156 43.90625 107.839844 44.183594 L 108.644531 44.742188 L 107.65625 44.742188 C 106.851562 44.742188 106.265625 44.371094 104.78125 42.980469 C 103.761719 41.996094 102.925781 41.097656 102.925781 40.945312 C 102.925781 40.574219 104.164062 41.285156 105.675781 42.550781 Z M 82.898438 47.515625 C 83.640625 48.382812 85.0625 49.738281 86.082031 50.539062 C 87.101562 51.34375 88.648438 52.640625 89.542969 53.441406 C 91.429688 55.140625 92.664062 56.003906 92.914062 55.757812 C 93.3125 55.355469 91.832031 53.347656 89.542969 51.160156 C 88.152344 49.863281 87.101562 48.722656 87.195312 48.628906 C 87.535156 48.289062 91.273438 50.789062 94.675781 53.628906 C 99.0625 57.300781 100.300781 58.132812 102.277344 58.902344 L 103.855469 59.488281 L 103.296875 58.5625 C 102.554688 57.265625 100.144531 55.140625 96.589844 52.609375 C 94.921875 51.4375 93.714844 50.417969 93.933594 50.355469 C 94.953125 50.015625 99.589844 52.390625 103.113281 55.046875 C 104.96875 56.433594 110.59375 62.082031 111.921875 63.839844 C 113.097656 65.445312 112.972656 64.640625 111.582031 61.867188 C 109.417969 57.515625 104.9375 53.226562 100.082031 50.882812 C 98.507812 50.140625 98.199219 49.675781 99.21875 49.675781 C 100.671875 49.675781 105.769531 52.976562 110.128906 56.679688 C 111.953125 58.253906 113.4375 59.488281 113.4375 59.394531 C 113.4375 59.335938 113.097656 58.472656 112.632812 57.484375 C 111.613281 55.140625 110.5625 54.089844 106.636719 51.4375 C 104.070312 49.675781 103.546875 49.214844 104.070312 49.121094 C 106.050781 48.84375 111.148438 53.164062 113.4375 57.050781 C 114.148438 58.285156 115.570312 61.433594 116.589844 63.996094 C 117.578125 66.554688 118.96875 70.042969 119.648438 71.738281 C 121.503906 76.367188 121.597656 75.933594 118.9375 75.289062 C 117.703125 74.976562 113.839844 74.207031 110.34375 73.589844 C 99.464844 71.617188 95.757812 70.445312 90.222656 67.171875 C 83.023438 62.914062 78.199219 57.730469 77.394531 53.347656 C 77.148438 52.113281 76.996094 51.960938 80.425781 56.15625 C 83.175781 59.519531 84.660156 61.03125 86.636719 62.484375 C 87.566406 63.160156 87.78125 63.222656 87.78125 62.820312 C 87.78125 61.957031 86.976562 60.691406 85.464844 59.242188 C 82.960938 56.804688 80.175781 52.792969 79.929688 51.25 L 79.714844 49.863281 L 81.507812 51.558594 C 85.523438 55.386719 86.296875 54.460938 82.621094 50.203125 C 81.105469 48.472656 80.269531 46.808594 80.578125 46.191406 C 80.890625 45.636719 81.660156 46.097656 82.898438 47.515625 Z M 49.023438 52.515625 C 48.621094 53.597656 47.507812 56.035156 46.550781 57.976562 C 45.558594 59.890625 44.847656 61.527344 44.910156 61.589844 C 44.972656 61.679688 45.746094 61.09375 46.640625 60.292969 C 47.753906 59.304688 48.621094 58.101562 49.484375 56.34375 C 50.566406 54.152344 50.722656 53.996094 50.535156 55.078125 C 50.445312 55.757812 49.609375 57.886719 48.683594 59.765625 C 47.753906 61.679688 47.105469 63.253906 47.230469 63.253906 C 48.3125 63.253906 50.691406 60.476562 51.648438 58.070312 L 52.269531 56.621094 L 52.144531 57.886719 C 52.050781 58.59375 51.339844 60.691406 50.535156 62.605469 C 49.703125 64.488281 49.144531 66.121094 49.269531 66.246094 C 49.703125 66.710938 51.773438 64.179688 52.917969 61.773438 C 53.566406 60.382812 54.214844 59.242188 54.308594 59.242188 C 54.398438 59.242188 54.398438 60.199219 54.339844 61.371094 C 54.214844 63.128906 53.875 64.117188 52.546875 66.957031 C 51.648438 68.839844 51 70.445312 51.0625 70.535156 C 51.15625 70.597656 52.082031 69.765625 53.101562 68.683594 C 54.429688 67.234375 55.171875 66.121094 55.667969 64.828125 C 56.378906 62.882812 56.871094 62.636719 56.871094 64.242188 C 56.871094 65.878906 54.832031 69.394531 52.082031 72.417969 C 50.289062 74.421875 47.445312 76.707031 41.355469 81.089844 C 38.757812 82.941406 35.699219 85.316406 34.554688 86.363281 C 33.445312 87.382812 32.421875 88.246094 32.332031 88.246094 C 32.050781 88.246094 30.136719 84.265625 29.242188 81.828125 C 28.3125 79.207031 27.507812 74.976562 27.507812 72.695312 L 27.539062 71.121094 L 29.578125 70.195312 C 35.175781 67.726562 39.75 63.40625 43.644531 56.988281 C 44.785156 55.140625 45.160156 54.707031 45.035156 55.386719 L 44.878906 56.3125 L 45.929688 55.109375 C 46.671875 54.273438 46.980469 53.597656 46.980469 52.886719 C 46.980469 51.835938 48.15625 50.632812 49.207031 50.605469 C 49.703125 50.605469 49.703125 50.789062 49.023438 52.515625 Z M 74.832031 59.148438 C 74.832031 60.660156 75.015625 63.378906 75.230469 65.257812 L 75.605469 68.652344 L 76.003906 67.328125 C 76.5625 65.320312 76.902344 61.648438 76.714844 59.394531 C 76.65625 58.285156 76.65625 57.390625 76.746094 57.390625 C 77.304688 57.390625 78.199219 59.738281 78.199219 61.1875 C 78.199219 63.128906 78.695312 67.695312 79.1875 70.195312 L 79.558594 72.046875 L 79.929688 71.121094 C 80.519531 69.703125 80.765625 66.710938 80.425781 64.394531 C 80.175781 62.542969 80.210938 62.328125 80.640625 62.390625 C 81.722656 62.605469 82.03125 64.640625 81.96875 71.121094 C 81.941406 74.515625 82.03125 77.480469 82.1875 77.726562 C 82.371094 78.003906 82.652344 77.601562 83.175781 76.335938 C 83.824219 74.734375 83.886719 73.992188 83.917969 69.949219 C 83.917969 65.878906 83.949219 65.476562 84.320312 66.339844 C 85.09375 68.25 85.371094 72.261719 85.03125 76.890625 C 84.84375 79.300781 84.753906 81.304688 84.8125 81.367188 C 84.875 81.429688 85.214844 80.75 85.585938 79.886719 C 86.699219 77.324219 87.257812 73.683594 87.039062 70.410156 C 86.949219 68.871094 86.976562 67.574219 87.101562 67.574219 C 87.226562 67.574219 87.628906 67.820312 88.03125 68.128906 C 89.078125 68.929688 89.265625 72.203125 88.554688 77.078125 C 88.277344 79.113281 88.089844 80.964844 88.152344 81.179688 C 88.367188 81.859375 89.914062 79.144531 90.441406 77.140625 C 90.78125 75.75 90.902344 74.332031 90.8125 72.449219 C 90.75 70.96875 90.75 69.734375 90.8125 69.734375 C 90.871094 69.734375 91.183594 69.886719 91.550781 70.074219 C 93.285156 71 93.5 74.976562 92.140625 80.253906 C 91.613281 82.167969 91.273438 83.804688 91.335938 83.898438 C 91.675781 84.203125 92.820312 82.753906 93.65625 81.027344 C 95.078125 78.035156 95.386719 75.503906 94.703125 72.292969 C 94.582031 71.648438 94.644531 71.648438 95.539062 71.953125 L 96.53125 72.292969 L 96.34375 75.257812 C 96.128906 79.023438 95.078125 82.414062 93.097656 85.65625 C 92.261719 86.980469 90.902344 89.234375 90.039062 90.621094 C 88.398438 93.308594 87.132812 96.082031 86.484375 98.550781 L 86.082031 100.066406 L 84.785156 98.984375 C 84.105469 98.398438 82.558594 96.824219 81.382812 95.527344 C 79.898438 93.832031 78.292969 92.503906 75.882812 90.902344 C 70.441406 87.289062 67.132812 83.710938 64.136719 78.25 C 62.1875 74.640625 61.507812 72.386719 61.507812 69.457031 C 61.507812 68.097656 61.632812 66.925781 61.785156 66.832031 C 61.941406 66.742188 62.714844 67.417969 63.519531 68.34375 C 64.289062 69.269531 65.09375 70.042969 65.21875 70.042969 C 65.371094 70.042969 65.652344 69.457031 65.867188 68.714844 L 66.207031 67.417969 L 66.949219 69.886719 C 67.351562 71.246094 67.691406 72.632812 67.691406 72.972656 L 67.722656 73.589844 L 68 72.972656 C 68.15625 72.632812 68.277344 70.96875 68.308594 69.269531 C 68.308594 67.574219 68.464844 65.566406 68.648438 64.828125 C 68.988281 63.316406 70.070312 61.617188 70.503906 61.867188 C 70.660156 61.988281 70.78125 63.070312 70.78125 64.335938 C 70.78125 66.710938 71.277344 69.671875 71.742188 70.164062 C 72.109375 70.566406 72.050781 71 72.296875 64.640625 C 72.449219 61.03125 72.667969 58.808594 72.914062 58.316406 C 73.441406 57.328125 74.214844 56.464844 74.550781 56.464844 C 74.675781 56.464844 74.800781 57.667969 74.832031 59.148438 Z M 57.089844 75.996094 C 56.6875 76.890625 55.914062 78.09375 55.421875 78.679688 C 54.894531 79.265625 54.214844 80.316406 53.875 80.996094 C 53.566406 81.675781 53.007812 82.632812 52.699219 83.15625 L 52.082031 84.082031 L 53.316406 83.1875 C 55.480469 81.613281 57.214844 79.824219 58.203125 78.09375 C 58.976562 76.707031 59.191406 76.519531 59.34375 77.015625 C 59.46875 77.324219 59.46875 77.941406 59.34375 78.371094 C 59.128906 79.175781 56.6875 83.554688 55.050781 86.179688 L 54.121094 87.628906 L 55.050781 87.105469 C 56.53125 86.242188 59.3125 83.15625 59.996094 81.613281 C 60.675781 80.101562 61.015625 79.917969 61.507812 80.808594 C 62.3125 82.324219 61.664062 83.589844 57.953125 87.785156 C 55.480469 90.59375 54.277344 92.226562 54.492188 92.445312 C 55.171875 93.121094 59.746094 88.988281 62.375 85.347656 L 63.488281 83.835938 L 64.199219 84.667969 L 64.878906 85.5 L 63.980469 86.949219 C 62.34375 89.605469 60.859375 91.023438 55.511719 95.003906 C 50.503906 98.738281 47.324219 101.699219 46.578125 103.273438 C 46.394531 103.675781 46.175781 103.984375 46.085938 103.984375 C 45.992188 103.953125 44.664062 101.976562 43.117188 99.570312 C 40.058594 94.695312 36.78125 88.554688 36.78125 87.660156 C 36.78125 87.351562 37.058594 86.734375 37.398438 86.304688 C 38.234375 85.253906 47.199219 79.207031 47.351562 79.636719 C 47.414062 79.792969 49.144531 78.21875 51.246094 76.121094 C 53.316406 74.023438 55.019531 72.386719 55.019531 72.511719 C 55.019531 72.632812 54.308594 73.835938 53.410156 75.164062 C 51.648438 77.910156 50.226562 80.78125 50.503906 81.089844 C 50.90625 81.460938 54.585938 77.230469 56.101562 74.640625 L 57.644531 72.015625 L 57.738281 73.191406 C 57.800781 73.960938 57.582031 74.949219 57.089844 75.996094 Z M 24.976562 73.46875 C 24.574219 74.175781 23.273438 75.8125 22.101562 77.109375 C 19.96875 79.390625 18.546875 81.210938 18.546875 81.582031 C 18.546875 82.167969 22.070312 79.855469 23.738281 78.1875 C 25.222656 76.644531 25.65625 76.335938 25.65625 76.828125 C 25.65625 77.664062 24.417969 80.007812 22.964844 81.921875 C 22.160156 82.96875 21.976562 83.371094 22.347656 83.21875 C 22.65625 83.09375 23.121094 83 23.367188 83 C 23.613281 83 24.449219 82.414062 25.191406 81.738281 C 25.964844 81.027344 26.675781 80.503906 26.769531 80.59375 C 27.078125 80.902344 25.933594 83.15625 24.945312 84.175781 C 24.386719 84.761719 23.152344 85.839844 22.160156 86.613281 C 21.171875 87.382812 20.429688 88.0625 20.492188 88.15625 C 20.710938 88.371094 23.121094 87.660156 24.664062 86.921875 C 25.4375 86.582031 26.425781 85.75 26.921875 85.070312 C 27.816406 83.835938 27.972656 83.957031 27.632812 85.75 C 27.386719 86.949219 25.871094 87.96875 19.285156 91.300781 C 16.535156 92.691406 13.753906 94.292969 13.042969 94.882812 C 12.363281 95.46875 11.746094 95.960938 11.683594 95.960938 C 11.621094 95.960938 11.558594 94.757812 11.53125 93.246094 C 11.53125 91.765625 11.34375 88.523438 11.128906 86.085938 C 10.539062 79.328125 11.003906 76.242188 12.890625 74.300781 C 13.847656 73.28125 15.980469 72.417969 17.09375 72.570312 L 17.925781 72.664062 L 16.8125 74.054688 C 15.300781 75.964844 14.527344 77.539062 14.21875 79.421875 C 14.09375 80.285156 14.003906 81.027344 14.03125 81.058594 C 14.0625 81.117188 14.898438 80.007812 15.855469 78.589844 C 17.679688 75.90625 21.171875 72.234375 21.542969 72.605469 C 21.667969 72.726562 21.234375 73.34375 20.585938 73.992188 C 19.566406 74.976562 18.019531 77.972656 18.359375 78.28125 C 18.515625 78.464844 21.851562 75.597656 23.644531 73.777344 C 24.480469 72.910156 25.285156 72.203125 25.4375 72.203125 C 25.5625 72.203125 25.375 72.789062 24.976562 73.46875 Z M 103.203125 75.195312 C 103.917969 76.027344 105.492188 78.742188 106.757812 81.304688 C 108.769531 85.378906 109.078125 85.839844 109.261719 85.097656 C 109.605469 83.742188 108.832031 80.964844 107.191406 77.878906 C 106.359375 76.242188 105.710938 74.855469 105.800781 74.792969 C 105.863281 74.734375 106.359375 74.761719 106.851562 74.855469 C 108.492188 75.195312 111.273438 79.855469 112.507812 84.421875 C 113.558594 88.214844 113.621094 88.308594 113.898438 86.582031 C 114.394531 83.371094 113.375 79.484375 111.273438 76.492188 C 110.746094 75.78125 110.714844 75.597656 111.054688 75.597656 C 112.757812 75.597656 115.910156 82.601562 116.714844 88.09375 C 116.898438 89.417969 116.960938 89.511719 117.175781 88.863281 C 117.300781 88.433594 117.394531 86.890625 117.421875 85.4375 C 117.453125 82.414062 116.714844 79.515625 115.445312 77.632812 C 115.042969 77.015625 114.828125 76.519531 114.980469 76.519531 C 115.632812 76.519531 117.113281 78.1875 117.796875 79.667969 C 118.476562 81.148438 118.535156 81.707031 118.535156 85.933594 C 118.503906 89.789062 118.351562 91.457031 117.546875 95.804688 C 116.992188 98.675781 116.464844 101.761719 116.371094 102.65625 L 116.15625 104.261719 L 114.734375 103.242188 C 112.910156 101.945312 111.023438 100.988281 105.460938 98.550781 C 103.050781 97.503906 100.113281 96.082031 98.941406 95.40625 C 96.929688 94.203125 93.035156 90.46875 93.035156 89.726562 C 93.035156 89.542969 93.46875 88.679688 94.023438 87.84375 L 94.984375 86.335938 L 95.539062 87.351562 C 96.003906 88.277344 97.980469 90.46875 97.980469 90.066406 C 97.980469 89.636719 96.40625 85.347656 96.128906 85.007812 C 95.816406 84.636719 96.929688 81.460938 97.394531 81.460938 C 97.519531 81.460938 97.765625 82.105469 97.980469 82.910156 C 98.476562 84.976562 99.960938 87.96875 100.886719 88.832031 C 102.03125 89.914062 101.9375 89.234375 100.394531 85.070312 C 99.683594 83.1875 98.941406 80.839844 98.722656 79.917969 C 98.257812 78.035156 98.136719 74.363281 98.539062 74.363281 C 98.691406 74.363281 100.050781 76.890625 101.597656 80.007812 C 103.144531 83.09375 104.71875 85.902344 105.121094 86.242188 L 105.800781 86.859375 L 105.585938 85.5625 C 105.246094 83.371094 104.503906 81.488281 102.433594 77.507812 C 100.484375 73.835938 100.453125 73.746094 101.195312 73.746094 C 101.722656 73.746094 102.339844 74.207031 103.203125 75.195312 Z M 67.289062 88.464844 C 68 90.222656 67.691406 95.097656 66.671875 98.273438 C 66.238281 99.632812 65.773438 101.300781 65.652344 101.976562 L 65.433594 103.210938 L 66.113281 102.625 C 68.0625 100.898438 69.203125 97.535156 69.484375 92.875 L 69.699219 89.328125 L 70.410156 90.40625 C 71.058594 91.394531 71.121094 91.734375 70.996094 94.261719 C 70.875 96.484375 70.597656 97.78125 69.578125 100.652344 C 68.867188 102.625 68.308594 104.476562 68.308594 104.785156 C 68.308594 105.679688 69.636719 104.230469 70.75 102.164062 C 71.925781 99.941406 72.605469 97.378906 72.789062 94.449219 C 72.851562 93.214844 72.976562 92.132812 73.039062 92.074219 C 73.101562 92.011719 73.410156 92.226562 73.75 92.597656 C 74.242188 93.152344 74.335938 93.738281 74.335938 96.546875 C 74.335938 99.539062 74.214844 100.09375 73.160156 103.027344 C 72.542969 104.816406 72.019531 106.390625 72.019531 106.574219 C 72.019531 106.730469 72.421875 106.484375 72.914062 106.019531 C 74.863281 104.136719 76.253906 99.015625 75.757812 95.40625 C 75.511719 93.617188 75.664062 93.492188 76.996094 94.449219 C 77.769531 95.003906 77.890625 95.28125 77.890625 96.546875 C 77.890625 100.003906 76.6875 104.230469 74.550781 108.425781 C 73.253906 110.957031 72.109375 112.683594 66.515625 120.335938 C 65.464844 121.785156 63.980469 124.195312 63.175781 125.675781 L 61.785156 128.390625 L 61.136719 127.527344 C 59.777344 125.738281 57.523438 123.578125 53.597656 120.335938 C 48.09375 115.769531 45.4375 112.871094 43.890625 109.722656 C 42.4375 106.789062 40.984375 101.207031 41.664062 101.207031 C 41.945312 101.207031 43.796875 104.015625 44.199219 105.0625 C 44.386719 105.527344 44.507812 106.328125 44.507812 106.914062 C 44.507812 107.46875 44.757812 108.242188 45.066406 108.613281 L 45.621094 109.320312 L 46.457031 107.378906 C 47.351562 105.308594 48.0625 104.261719 49.730469 102.503906 C 50.753906 101.390625 50.753906 101.390625 51.125 102.070312 C 51.464844 102.71875 51.496094 102.6875 51.835938 101.421875 C 52.269531 99.878906 53.226562 98.550781 53.71875 98.828125 C 53.875 98.953125 54.121094 99.632812 54.246094 100.3125 C 54.523438 101.855469 54.832031 101.484375 55.328125 99.140625 C 55.699219 97.472656 56.378906 96.363281 57.152344 96.207031 C 57.523438 96.144531 57.582031 96.609375 57.550781 98.738281 L 57.460938 101.359375 L 58.078125 100.652344 C 58.417969 100.28125 58.851562 99.171875 59.035156 98.183594 C 59.222656 97.226562 59.4375 96.054688 59.53125 95.589844 C 59.714844 94.695312 60.769531 93.183594 61.199219 93.183594 C 61.355469 93.183594 61.539062 94.480469 61.570312 96.023438 L 61.664062 98.890625 L 62.53125 97.441406 C 63.242188 96.207031 63.363281 95.652344 63.363281 93.648438 C 63.363281 91.300781 63.703125 90.097656 64.351562 90.097656 C 64.691406 90.097656 64.507812 97.289062 64.105469 99.046875 L 63.921875 99.816406 L 64.722656 98.953125 C 65.867188 97.71875 66.144531 96.300781 66.144531 91.546875 C 66.144531 87.074219 66.394531 86.394531 67.289062 88.464844 Z M 30.539062 90.003906 C 30.601562 90.746094 30.324219 91.332031 29.269531 92.628906 C 27.695312 94.570312 27.078125 95.621094 27.355469 95.898438 C 27.785156 96.363281 29.921875 94.695312 31.929688 92.320312 C 33.105469 90.902344 34.125 89.820312 34.214844 89.914062 C 34.402344 90.066406 33.535156 91.640625 31.835938 94.355469 C 31.28125 95.25 30.878906 96.054688 31.003906 96.144531 C 31.3125 96.484375 32.949219 95.375 34.277344 93.953125 C 35.019531 93.152344 35.667969 92.597656 35.730469 92.660156 C 36.039062 92.9375 34.988281 94.941406 33.566406 96.855469 C 32.796875 97.933594 32.144531 98.953125 32.144531 99.109375 C 32.144531 100.003906 35.328125 97.964844 36.132812 96.546875 C 36.71875 95.496094 37.089844 95.40625 37.089844 96.300781 C 37.089844 97.347656 36.503906 98.152344 33.597656 101.144531 C 32.082031 102.71875 30.878906 104.074219 30.96875 104.167969 C 31.496094 104.660156 33.195312 103.582031 35.792969 101.082031 C 38.699219 98.335938 39.503906 98.027344 38.480469 100.003906 C 37.367188 102.101562 32.671875 106.359375 26.703125 110.617188 C 25.3125 111.636719 23.984375 112.871094 23.492188 113.671875 C 22.996094 114.410156 22.46875 115.121094 22.285156 115.214844 C 21.851562 115.492188 20.710938 112.960938 19.132812 108.242188 C 17.648438 103.890625 17.0625 99.355469 17.496094 96.113281 L 17.773438 93.953125 L 21.730469 92.195312 C 23.894531 91.238281 26.085938 90.128906 26.613281 89.757812 L 27.601562 89.078125 L 27.449219 89.972656 C 27.355469 90.46875 27.167969 91.148438 27.046875 91.457031 C 26.796875 92.011719 26.890625 92.011719 27.816406 91.332031 C 28.375 90.929688 29.054688 90.222656 29.332031 89.726562 C 29.949219 88.648438 30.414062 88.773438 30.539062 90.003906 Z M 91.644531 96.269531 C 92.417969 101.144531 94.273438 106.144531 95.261719 106.144531 C 95.847656 106.144531 95.261719 102.59375 94.117188 99.199219 C 93.035156 95.960938 92.820312 94.726562 93.285156 94.726562 C 93.839844 94.726562 94.828125 96.546875 95.476562 98.738281 C 96.21875 101.144531 97.734375 104.414062 98.289062 104.753906 C 98.785156 105.0625 98.660156 103.089844 98.011719 100.742188 C 97.671875 99.570312 97.488281 98.519531 97.578125 98.429688 C 97.671875 98.335938 98.199219 98.828125 98.785156 99.480469 C 99.992188 100.867188 100.730469 102.996094 101.566406 107.46875 C 101.96875 109.722656 102.1875 110.339844 102.402344 109.96875 C 102.804688 109.226562 102.464844 103.550781 101.90625 101.730469 C 101.566406 100.679688 101.535156 100.28125 101.785156 100.371094 C 102.585938 100.621094 103.515625 102.5625 103.855469 104.691406 C 104.566406 109.199219 104.8125 110.246094 105.183594 109.878906 C 105.742188 109.320312 105.800781 104.941406 105.277344 103.210938 C 105.03125 102.378906 104.84375 101.636719 104.90625 101.578125 C 105.246094 101.265625 106.667969 102.625 107.222656 103.765625 C 107.78125 104.96875 108.367188 108.273438 108.582031 111.695312 L 108.675781 113.085938 L 109.261719 111.851562 C 109.695312 110.925781 109.851562 109.9375 109.882812 107.933594 C 109.882812 106.421875 109.976562 105.21875 110.097656 105.21875 C 110.46875 105.21875 111.273438 108.117188 111.273438 109.535156 C 111.273438 111.664062 110.625 113.796875 108.027344 119.875 C 105.648438 125.460938 104.472656 129.039062 104.472656 130.582031 C 104.472656 131.042969 104.378906 131.476562 104.226562 131.535156 C 104.101562 131.628906 103.113281 131.011719 102 130.179688 C 100.886719 129.316406 97.054688 127.1875 93.46875 125.429688 C 89.882812 123.636719 85.894531 121.507812 84.660156 120.675781 C 80.828125 118.175781 77.890625 114.691406 76.777344 111.328125 L 76.285156 109.816406 L 77.425781 106.976562 C 78.078125 105.433594 78.632812 104.105469 78.664062 104.046875 C 78.726562 103.984375 78.972656 105.03125 79.28125 106.359375 C 79.839844 108.980469 80.796875 111.296875 82.03125 113.117188 C 82.898438 114.410156 82.992188 114.320312 82.496094 112.46875 C 82.0625 110.679688 79.777344 97.070312 79.898438 96.917969 C 79.960938 96.855469 80.640625 97.347656 81.414062 97.964844 C 82.804688 99.078125 82.835938 99.171875 82.835938 100.867188 C 82.835938 101.824219 83.050781 103.429688 83.269531 104.445312 C 83.730469 106.359375 85.433594 110.464844 85.804688 110.464844 C 86.050781 110.464844 85.679688 107.714844 84.96875 104.660156 C 84.289062 101.667969 84.226562 100.804688 84.753906 100.957031 C 84.96875 101.050781 85.433594 102.195312 85.804688 103.550781 C 86.144531 104.878906 86.792969 106.851562 87.257812 107.902344 C 88.183594 110.03125 89.480469 112.222656 89.203125 111.234375 C 89.140625 110.894531 88.894531 109.785156 88.710938 108.765625 C 88.523438 107.75 88.058594 105.898438 87.71875 104.660156 L 87.070312 102.410156 L 87.78125 100.09375 C 88.183594 98.828125 88.648438 97.71875 88.769531 97.628906 C 88.894531 97.535156 89.019531 98.582031 89.019531 99.972656 C 89.019531 103.148438 89.730469 106.699219 90.871094 109.074219 L 91.738281 110.925781 L 91.769531 109.382812 C 91.800781 108.519531 91.367188 106.082031 90.839844 103.984375 C 89.667969 99.386719 89.511719 95.867188 90.347656 93.984375 C 90.625 93.308594 90.933594 92.84375 90.996094 92.90625 C 91.058594 92.96875 91.335938 94.480469 91.644531 96.269531 Z M 38.449219 104.96875 C 38.359375 105.710938 37.957031 108.242188 37.554688 110.617188 C 37.152344 112.992188 36.75 115.617188 36.6875 116.480469 L 36.503906 118.023438 L 37.742188 115.554688 C 38.421875 114.195312 39.132812 112.46875 39.316406 111.726562 C 39.625 110.492188 39.6875 110.433594 40.089844 110.925781 C 40.738281 111.851562 40.550781 114.257812 39.5625 117.3125 L 38.667969 120.183594 L 39.5625 119.101562 C 40.058594 118.515625 40.921875 117.21875 41.480469 116.261719 C 42.035156 115.277344 42.59375 114.472656 42.746094 114.472656 C 43.179688 114.472656 42.933594 117.003906 42.3125 118.734375 C 41.261719 121.632812 41.230469 121.847656 42.253906 120.769531 C 42.714844 120.242188 43.519531 119.164062 43.984375 118.363281 C 44.449219 117.527344 44.910156 116.941406 45.035156 117.035156 C 45.375 117.40625 43.859375 121.507812 42.714844 123.265625 C 42.066406 124.285156 40.398438 126.632812 38.976562 128.453125 C 37.585938 130.304688 36.007812 132.679688 35.484375 133.757812 L 34.496094 135.734375 L 33.226562 133.820312 C 32.546875 132.773438 31.15625 130.734375 30.136719 129.285156 C 26.984375 124.6875 25.65625 121.078125 25.65625 117.097656 C 25.65625 114.753906 25.871094 113.546875 26.304688 113.546875 C 26.457031 113.546875 26.582031 113.824219 26.582031 114.195312 C 26.582031 114.535156 26.828125 115.738281 27.105469 116.820312 L 27.632812 118.824219 L 28.1875 116.109375 C 28.46875 114.628906 28.714844 112.960938 28.714844 112.4375 C 28.746094 111.757812 28.960938 111.296875 29.519531 110.957031 L 30.289062 110.464844 L 30.289062 114.535156 C 30.289062 117.003906 30.414062 118.453125 30.570312 118.175781 C 31.003906 117.46875 32.761719 110.183594 32.761719 109.199219 C 32.761719 108.640625 32.980469 108.210938 33.414062 107.996094 C 33.753906 107.777344 34.09375 107.683594 34.15625 107.75 C 34.214844 107.808594 34.0625 109.320312 33.84375 111.078125 C 32.796875 118.792969 33.753906 120.921875 35.082031 113.855469 C 36.101562 108.457031 36.535156 106.789062 37.277344 105.246094 C 38.234375 103.335938 38.699219 103.210938 38.449219 104.96875 Z M 75.480469 116.789062 C 74.953125 118.300781 74.707031 119.933594 74.550781 122.496094 C 74.398438 125.765625 74.429688 126.015625 74.894531 125.613281 C 75.632812 125.027344 76.34375 122.402344 76.53125 119.566406 C 76.746094 116.355469 76.839844 116.046875 77.425781 116.820312 C 78.078125 117.683594 77.984375 119.566406 77.117188 122.28125 C 76.6875 123.609375 76.34375 125.117188 76.34375 125.644531 C 76.34375 126.476562 76.40625 126.539062 76.839844 126.167969 C 77.582031 125.550781 78.476562 123.636719 78.941406 121.539062 C 79.1875 120.519531 79.496094 119.566406 79.589844 119.441406 C 79.714844 119.347656 80.117188 119.628906 80.519531 120.089844 L 81.230469 120.921875 L 80.210938 123.328125 C 78.941406 126.261719 78.632812 127.433594 79.097656 127.433594 C 79.746094 127.433594 81.257812 124.933594 81.632812 123.238281 C 82.003906 121.539062 82.3125 121.199219 82.652344 122.066406 C 82.992188 122.988281 82.835938 123.976562 81.878906 126.632812 C 81.324219 128.113281 80.980469 129.378906 81.074219 129.5 C 81.476562 129.871094 82.804688 128.636719 83.453125 127.277344 C 83.855469 126.476562 84.226562 125.210938 84.320312 124.472656 C 84.476562 122.988281 84.476562 122.988281 85.339844 123.421875 C 86.238281 123.917969 86.050781 125.089844 84.566406 128.328125 C 83.824219 129.964844 83.113281 131.628906 82.992188 132 C 82.804688 132.648438 82.835938 132.710938 83.394531 132.402344 C 84.445312 131.84375 85.464844 130.394531 86.699219 127.617188 C 87.378906 126.167969 87.996094 124.964844 88.121094 124.964844 C 88.246094 124.964844 88.398438 125.273438 88.492188 125.644531 C 88.675781 126.292969 88.277344 127.648438 86.886719 131.042969 C 86.546875 131.9375 86.359375 132.679688 86.515625 132.679688 C 87.628906 132.679688 90.253906 128.851562 90.253906 127.277344 C 90.253906 126.445312 90.503906 126.199219 91.058594 126.414062 C 91.738281 126.660156 91.582031 128.820312 90.75 130.488281 C 89.699219 132.554688 87.378906 134.960938 82.835938 138.789062 C 80.703125 140.609375 77.984375 142.953125 76.746094 144.035156 L 74.550781 145.976562 L 72.976562 142.800781 C 72.109375 141.042969 70.535156 137.953125 69.453125 135.917969 C 67.414062 132.03125 66.207031 128.820312 65.929688 126.507812 C 65.804688 125.335938 65.898438 124.902344 66.640625 123.761719 L 67.535156 122.433594 L 67.722656 124.378906 C 67.9375 126.507812 68.867188 129.4375 69.667969 130.582031 C 70.164062 131.257812 70.164062 131.257812 70.164062 130.210938 C 70.164062 129.625 70.007812 127.464844 69.824219 125.429688 C 69.453125 121.449219 69.761719 118.609375 70.660156 117.867188 C 71.03125 117.527344 71.089844 117.714844 71.089844 118.949219 C 71.089844 120.613281 71.710938 124.347656 71.988281 124.347656 C 72.109375 124.347656 72.511719 122.464844 72.882812 120.152344 C 73.285156 117.835938 73.902344 115.03125 74.242188 113.917969 L 74.863281 111.882812 L 75.542969 113.238281 L 76.191406 114.628906 Z M 48.804688 121.171875 C 49.023438 121.664062 49.394531 123.855469 49.640625 126.105469 C 49.886719 128.328125 50.226562 130.550781 50.414062 131.042969 L 50.753906 131.90625 L 51.0625 131.136719 C 51.214844 130.703125 51.308594 128.730469 51.246094 126.753906 C 51.1875 124.75 51.246094 123.113281 51.371094 123.113281 C 52.082031 123.113281 53.101562 126.601562 53.164062 129.285156 C 53.195312 130.054688 53.71875 129.039062 54.121094 127.496094 C 54.398438 126.507812 54.585938 126.261719 54.832031 126.507812 C 55.203125 126.878906 55.296875 130.859375 54.925781 132.988281 L 54.710938 134.375 L 55.636719 132.710938 C 56.160156 131.785156 56.71875 130.488281 56.933594 129.839844 C 57.214844 128.914062 57.367188 128.730469 57.707031 129.007812 C 58.695312 129.839844 58.015625 132.742188 55.328125 139.160156 C 54.492188 141.101562 53.597656 143.539062 53.316406 144.558594 C 53.007812 145.578125 52.730469 146.441406 52.699219 146.503906 C 52.636719 146.5625 51.402344 145.636719 49.949219 144.433594 C 48.496094 143.261719 45.992188 141.503906 44.386719 140.578125 C 40.027344 138.015625 38.171875 135.796875 38.390625 133.359375 C 38.511719 131.9375 38.882812 131.90625 39.75 133.234375 L 40.460938 134.25 L 40.273438 132.585938 C 40.121094 130.980469 40.582031 128.667969 41.078125 128.667969 C 41.203125 128.667969 41.480469 129.4375 41.695312 130.394531 C 42.128906 132.277344 42.808594 134.097656 43.179688 134.316406 C 43.335938 134.40625 43.394531 132.585938 43.367188 130.273438 L 43.304688 126.046875 L 44.167969 128.667969 C 45.25 132 46.363281 134.53125 46.703125 134.53125 C 47.105469 134.53125 47.074219 134.128906 46.210938 129.59375 C 45.4375 125.460938 45.1875 121.757812 45.714844 121.449219 C 45.867188 121.324219 46.085938 121.816406 46.210938 122.496094 C 46.332031 123.175781 46.828125 125.089844 47.324219 126.753906 L 48.21875 129.75 L 48.125 125.027344 C 48.09375 122.464844 48.15625 120.335938 48.25 120.335938 C 48.339844 120.335938 48.589844 120.707031 48.804688 121.171875 Z M 93.964844 128.882812 C 93.964844 129.378906 93.6875 130.640625 93.34375 131.691406 C 92.296875 135.054688 92.664062 135.796875 94.273438 133.574219 C 94.769531 132.863281 95.261719 131.785156 95.355469 131.167969 C 95.757812 128.667969 95.816406 128.574219 96.3125 129.007812 C 97.269531 129.777344 96.714844 132.402344 94.921875 135.824219 C 94.054688 137.523438 93.375 139.003906 93.46875 139.066406 C 93.53125 139.160156 93.964844 138.972656 94.394531 138.695312 C 95.972656 137.648438 98.257812 133.171875 98.289062 131.042969 C 98.289062 130.054688 98.785156 129.933594 99.0625 130.859375 C 99.742188 132.957031 97.332031 137.398438 91.089844 145.636719 C 89.730469 147.429688 88.492188 149.1875 88.308594 149.589844 C 88.121094 149.957031 87.875 150.234375 87.75 150.203125 C 86.761719 149.835938 81.722656 142.242188 82.25 141.84375 C 87.316406 138.015625 90.410156 134.746094 92.109375 131.382812 C 92.789062 130.027344 93.34375 128.699219 93.34375 128.484375 C 93.34375 128.234375 93.5 128.050781 93.65625 128.050781 C 93.839844 128.050781 93.964844 128.421875 93.964844 128.882812 Z M 63.457031 137.769531 C 63.640625 143.570312 64.074219 146.253906 64.660156 145.207031 C 64.847656 144.867188 64.96875 142.675781 64.941406 140.054688 C 64.910156 137.277344 65.03125 135.457031 65.21875 135.457031 C 65.835938 135.457031 66.144531 136.722656 66.144531 139.21875 C 66.144531 140.640625 66.363281 143.171875 66.609375 144.867188 C 66.855469 146.5625 67.074219 148.074219 67.074219 148.261719 C 67.105469 148.414062 67.226562 148.292969 67.382812 147.953125 C 67.535156 147.613281 67.660156 145.636719 67.660156 143.539062 C 67.691406 141.472656 67.8125 139.777344 67.9375 139.777344 C 68.277344 139.777344 69.113281 141.289062 69.390625 142.398438 C 69.515625 142.890625 69.730469 145.265625 69.824219 147.644531 C 70.039062 151.933594 70.039062 151.964844 70.472656 150.574219 C 70.6875 149.804688 70.96875 148.570312 71.058594 147.796875 L 71.246094 146.410156 L 71.800781 147.210938 C 72.109375 147.675781 72.542969 148.910156 72.757812 149.988281 L 73.132812 151.933594 L 75.078125 149.125 C 77.085938 146.195312 79.40625 143.785156 80.210938 143.785156 C 80.890625 143.785156 80.796875 144.003906 79.53125 145.484375 C 78.324219 146.839844 75.296875 151.808594 75.632812 151.808594 C 76.3125 151.808594 78.046875 150.144531 79.621094 148.015625 C 80.828125 146.378906 81.476562 145.730469 81.539062 146.070312 C 81.722656 147.027344 80.363281 149.246094 77.890625 151.964844 C 76.53125 153.445312 75.417969 154.773438 75.417969 154.925781 C 75.417969 155.109375 74.953125 155.417969 74.367188 155.664062 C 73.378906 156.097656 71.398438 158.011719 71.398438 158.597656 C 71.398438 158.753906 71.800781 158.753906 72.328125 158.566406 C 73.222656 158.257812 75.109375 156.40625 75.109375 155.820312 C 75.109375 155.695312 75.605469 155.386719 76.191406 155.203125 C 77.613281 154.742188 80.085938 152.488281 81.847656 149.988281 C 83.238281 148.046875 83.300781 148.015625 83.394531 148.816406 C 83.515625 149.898438 83.050781 150.605469 80.425781 153.414062 C 78.664062 155.296875 68.957031 162.917969 68.339844 162.917969 C 68.214844 162.917969 67.875 162.515625 67.597656 162.023438 C 67.289062 161.496094 64.910156 159.058594 62.25 156.53125 C 59.53125 153.9375 56.839844 151.070312 56.039062 149.898438 C 54.769531 148.046875 54.648438 147.707031 54.769531 146.503906 C 54.863281 145.761719 55.421875 144.066406 55.976562 142.707031 L 57.027344 140.238281 L 57.242188 142.304688 C 57.492188 144.558594 58.449219 147.394531 59.3125 148.445312 C 59.839844 149.09375 59.839844 148.941406 59.285156 145.453125 C 58.296875 139.21875 58.480469 134.53125 59.777344 132.832031 C 60.210938 132.277344 60.242188 132.492188 60.273438 135.300781 C 60.273438 139.40625 60.796875 143.324219 61.539062 144.988281 C 61.847656 145.730469 62.1875 146.285156 62.21875 146.222656 C 62.28125 146.164062 62.1875 144.28125 62.035156 142.089844 C 61.785156 138.292969 62.066406 133.050781 62.621094 131.597656 C 62.839844 131.074219 62.867188 131.074219 63.054688 131.628906 C 63.175781 131.9375 63.363281 134.714844 63.457031 137.769531 Z M 42.46875 141.503906 C 43.425781 141.964844 43.488281 142.121094 43.367188 143.140625 C 43.273438 144.003906 43.425781 144.589844 44.199219 145.761719 C 45.1875 147.304688 45.652344 147.519531 45.1875 146.222656 C 44.757812 145.113281 44.476562 142.859375 44.726562 142.859375 C 45.40625 142.890625 45.960938 143.785156 46.300781 145.328125 C 46.796875 147.519531 49.023438 151.5625 49.300781 150.820312 C 49.421875 150.511719 49.238281 149.402344 48.867188 148.351562 C 47.96875 145.730469 48.003906 145.453125 49.144531 146.253906 C 49.703125 146.65625 50.074219 147.179688 50.074219 147.613281 C 50.074219 148.753906 50.9375 151.253906 51.773438 152.582031 L 52.578125 153.816406 L 52.421875 152.582031 C 52.328125 151.902344 52.175781 150.851562 52.082031 150.265625 L 51.894531 149.1875 L 52.515625 149.898438 C 52.824219 150.265625 53.410156 151.5 53.78125 152.582031 C 54.523438 154.800781 55.203125 154.988281 54.925781 152.921875 L 54.769531 151.65625 L 55.667969 152.734375 C 56.75 154 56.8125 155.109375 55.945312 156.902344 C 55.359375 158.101562 53.90625 159.800781 53.6875 159.492188 C 53.070312 158.566406 50.691406 155.789062 48.867188 153.816406 C 45.652344 150.359375 43.984375 148.046875 42.65625 145.175781 C 41.542969 142.828125 40.921875 141.011719 41.230469 141.011719 C 41.324219 141.011719 41.882812 141.226562 42.46875 141.503906 Z M 42.46875 141.503906 "/>
<path style=" stroke:none;fill-rule:nonzero;fill:rgb(0%,0%,0%);fill-opacity:1;" d="M 48.992188 24.066406 C 48.867188 24.25 49.300781 24.375 50.042969 24.375 C 50.722656 24.375 51.371094 24.222656 51.464844 24.066406 C 51.585938 23.882812 51.15625 23.757812 50.414062 23.757812 C 49.730469 23.757812 49.082031 23.882812 48.992188 24.066406 Z M 48.992188 24.066406 "/>
<path style=" stroke:none;fill-rule:nonzero;fill:rgb(0%,0%,0%);fill-opacity:1;" d="M 48.714844 35.824219 C 48.28125 36.164062 47.753906 36.71875 47.570312 37.058594 C 47.289062 37.613281 47.351562 37.644531 48.125 37.488281 C 50.164062 37.027344 51.308594 36.253906 51.308594 35.359375 C 51.308594 34.898438 49.453125 35.238281 48.714844 35.824219 Z M 48.714844 35.824219 "/>
<path style=" stroke:none;fill-rule:nonzero;fill:rgb(0%,0%,0%);fill-opacity:1;" d="M 53.410156 37.429688 C 52.761719 37.582031 51.648438 38.261719 50.9375 38.941406 L 49.609375 40.144531 L 50.628906 39.988281 C 52.175781 39.710938 53.75 38.878906 54.308594 38.046875 C 54.925781 37.117188 54.832031 37.058594 53.410156 37.429688 Z M 53.410156 37.429688 "/>
<path style=" stroke:none;fill-rule:nonzero;fill:rgb(0%,0%,0%);fill-opacity:1;" d="M 39.75 38.292969 C 38.667969 39.589844 38.667969 40.203125 39.78125 39.773438 C 41.015625 39.308594 41.417969 38.878906 41.417969 38.074219 C 41.417969 37.058594 40.707031 37.148438 39.75 38.292969 Z M 39.75 38.292969 "/>
<path style=" stroke:none;fill-rule:nonzero;fill:rgb(0%,0%,0%);fill-opacity:1;" d="M 35.175781 40.144531 C 34.804688 40.359375 34.617188 40.820312 34.617188 41.59375 L 34.617188 42.734375 L 35.390625 41.933594 C 36.007812 41.347656 36.132812 41.007812 35.949219 40.511719 C 35.761719 39.988281 35.578125 39.898438 35.175781 40.144531 Z M 35.175781 40.144531 "/>
<path style=" stroke:none;fill-rule:nonzero;fill:rgb(0%,0%,0%);fill-opacity:1;" d="M 53.75 41.933594 L 52.390625 43.167969 L 53.75 42.765625 C 54.988281 42.425781 55.945312 41.625 55.945312 40.976562 C 55.945312 40.390625 55.019531 40.820312 53.75 41.933594 Z M 53.75 41.933594 "/>
<path style=" stroke:none;fill-rule:nonzero;fill:rgb(0%,0%,0%);fill-opacity:1;" d="M 47.570312 46.097656 C 45.035156 47.210938 42.003906 49.089844 42.5625 49.277344 C 43.179688 49.492188 46.796875 48.410156 48.125 47.640625 C 49.484375 46.839844 51.0625 45.019531 50.320312 45.078125 C 50.105469 45.078125 48.867188 45.542969 47.570312 46.097656 Z M 47.570312 46.097656 "/>
<path style=" stroke:none;fill-rule:nonzero;fill:rgb(0%,0%,0%);fill-opacity:1;" d="M 38.730469 50.078125 C 38.328125 50.234375 38.019531 50.511719 38.019531 50.664062 C 38.019531 51.035156 39.503906 50.972656 39.75 50.570312 C 40.089844 50.015625 39.46875 49.707031 38.730469 50.078125 Z M 38.730469 50.078125 "/>
<path style=" stroke:none;fill-rule:nonzero;fill:rgb(0%,0%,0%);fill-opacity:1;" d="M 29.519531 29.066406 C 28.683594 29.375 28.652344 29.4375 29.210938 29.652344 C 30.847656 30.269531 33.96875 29.683594 33.164062 28.910156 C 32.855469 28.605469 30.570312 28.695312 29.519531 29.066406 Z M 29.519531 29.066406 "/>
<path style=" stroke:none;fill-rule:nonzero;fill:rgb(0%,0%,0%);fill-opacity:1;" d="M 87.628906 36.101562 C 87.9375 36.441406 88.367188 36.71875 88.617188 36.71875 C 88.957031 36.71875 88.957031 36.59375 88.710938 36.101562 C 88.523438 35.761719 88.089844 35.484375 87.71875 35.484375 C 87.101562 35.484375 87.070312 35.515625 87.628906 36.101562 Z M 87.628906 36.101562 "/>
<path style=" stroke:none;fill-rule:nonzero;fill:rgb(0%,0%,0%);fill-opacity:1;" d="M 84.382812 39.464844 C 84.382812 39.617188 84.660156 40.050781 84.96875 40.453125 C 85.585938 41.222656 86.144531 41.097656 85.835938 40.296875 C 85.617188 39.773438 84.382812 39.03125 84.382812 39.464844 Z M 84.382812 39.464844 "/>
<path style=" stroke:none;fill-rule:nonzero;fill:rgb(0%,0%,0%);fill-opacity:1;" d="M 84.535156 42.890625 C 84.785156 43.257812 87.164062 43.90625 87.410156 43.660156 C 87.535156 43.535156 87.347656 43.257812 87.039062 43.011719 C 86.359375 42.519531 84.226562 42.394531 84.535156 42.890625 Z M 84.535156 42.890625 "/>
<path style=" stroke:none;fill-rule:nonzero;fill:rgb(0%,0%,0%);fill-opacity:1;" d="M 89.511719 43.785156 C 89.078125 44.433594 91.921875 45.359375 95.261719 45.664062 C 99.464844 46.035156 102.617188 46.035156 102.617188 45.664062 C 102.617188 44.894531 100.949219 44.339844 97.890625 44.09375 C 96.160156 43.96875 93.625 43.753906 92.230469 43.628906 C 90.441406 43.476562 89.667969 43.535156 89.511719 43.785156 Z M 89.511719 43.785156 "/>
<path style=" stroke:none;fill-rule:nonzero;fill:rgb(0%,0%,0%);fill-opacity:1;" d="M 66.949219 49.121094 C 66.671875 49.492188 66.453125 50.203125 66.453125 50.664062 C 66.453125 51.46875 66.515625 51.496094 67.074219 51.160156 C 68.15625 50.480469 68.617188 48.445312 67.691406 48.445312 C 67.535156 48.445312 67.195312 48.753906 66.949219 49.121094 Z M 66.949219 49.121094 "/>
<path style=" stroke:none;fill-rule:nonzero;fill:rgb(0%,0%,0%);fill-opacity:1;" d="M 68.125 52.515625 C 67.753906 53.070312 67.445312 55.230469 67.691406 55.230469 C 68.15625 55.230469 69.546875 53.347656 69.546875 52.734375 C 69.546875 52.082031 68.496094 51.898438 68.125 52.515625 Z M 68.125 52.515625 "/>
<path style=" stroke:none;fill-rule:nonzero;fill:rgb(0%,0%,0%);fill-opacity:1;" d="M 58.542969 54.460938 C 58.664062 54.953125 58.914062 55.507812 59.097656 55.695312 C 59.3125 55.910156 59.34375 55.726562 59.222656 55.078125 C 59.097656 54.550781 58.851562 53.996094 58.664062 53.84375 C 58.449219 53.628906 58.417969 53.8125 58.542969 54.460938 Z M 58.542969 54.460938 "/>
<path style=" stroke:none;fill-rule:nonzero;fill:rgb(0%,0%,0%);fill-opacity:1;" d="M 61.261719 59.765625 C 61.878906 61.1875 63.332031 63.222656 63.980469 63.5625 C 64.507812 63.839844 64.601562 63.777344 64.601562 63.128906 C 64.601562 62.296875 63.242188 60.570312 61.785156 59.519531 L 60.890625 58.871094 Z M 61.261719 59.765625 "/>
<path style=" stroke:none;fill-rule:nonzero;fill:rgb(0%,0%,0%);fill-opacity:1;" d="M 116.929688 52.976562 C 116.992188 53.132812 117.300781 53.75 117.578125 54.367188 C 118.195312 55.664062 119 56.15625 119 55.230469 C 119 54.613281 117.578125 52.761719 117.113281 52.761719 C 116.929688 52.761719 116.867188 52.855469 116.929688 52.976562 Z M 116.929688 52.976562 "/>
<path style=" stroke:none;fill-rule:nonzero;fill:rgb(0%,0%,0%);fill-opacity:1;" d="M 13.691406 45.296875 L 12.734375 46.128906 L 14.003906 46.035156 C 14.929688 45.945312 15.453125 45.695312 15.855469 45.171875 C 16.414062 44.433594 16.414062 44.433594 15.546875 44.433594 C 15.050781 44.464844 14.25 44.832031 13.691406 45.296875 Z M 13.691406 45.296875 "/>
<path style=" stroke:none;fill-rule:nonzero;fill:rgb(0%,0%,0%);fill-opacity:1;" d="M 17.585938 55.695312 C 16.96875 56.09375 16.382812 56.652344 16.257812 56.929688 C 15.980469 57.730469 16.042969 58.871094 16.414062 59.089844 C 16.96875 59.460938 18.238281 57.976562 18.238281 57.023438 C 18.238281 56.527344 18.390625 55.847656 18.546875 55.507812 C 18.976562 54.769531 18.917969 54.769531 17.585938 55.695312 Z M 17.585938 55.695312 "/>
<path style=" stroke:none;fill-rule:nonzero;fill:rgb(0%,0%,0%);fill-opacity:1;" d="M 15.824219 61.15625 C 15.671875 61.371094 14.867188 62.789062 14.09375 64.335938 C 13.289062 65.84375 12.363281 67.574219 11.992188 68.128906 C 11.558594 68.808594 11.46875 69.269531 11.652344 69.457031 C 12.117188 69.917969 14.09375 67.914062 14.835938 66.277344 C 15.363281 65.074219 16.445312 60.785156 16.226562 60.785156 C 16.195312 60.785156 16.011719 60.96875 15.824219 61.15625 Z M 15.824219 61.15625 "/>
<path style=" stroke:none;fill-rule:nonzero;fill:rgb(0%,0%,0%);fill-opacity:1;" d="M 24.109375 64.582031 C 22.8125 65.199219 22.78125 65.257812 23.523438 65.351562 C 24.480469 65.476562 26.582031 64.671875 26.582031 64.210938 C 26.582031 63.683594 25.59375 63.808594 24.109375 64.582031 Z M 24.109375 64.582031 "/>
<path style=" stroke:none;fill-rule:nonzero;fill:rgb(0%,0%,0%);fill-opacity:1;" d="M 24.449219 67.726562 C 23.027344 68.316406 21.789062 68.871094 21.699219 68.960938 C 21.605469 69.054688 22.039062 69.117188 22.625 69.117188 C 24.542969 69.117188 27.507812 67.789062 27.507812 66.894531 C 27.507812 66.492188 27.230469 66.585938 24.449219 67.726562 Z M 24.449219 67.726562 "/>
<path style=" stroke:none;fill-rule:nonzero;fill:rgb(0%,0%,0%);fill-opacity:1;" d="M 87.472656 57.546875 C 87.472656 58.007812 88.246094 59.242188 88.617188 59.367188 C 89.730469 59.796875 90.007812 58.59375 88.957031 57.886719 C 88.308594 57.421875 87.472656 57.238281 87.472656 57.546875 Z M 87.472656 57.546875 "/>
<path style=" stroke:none;fill-rule:nonzero;fill:rgb(0%,0%,0%);fill-opacity:1;" d="M 114.023438 61.125 C 114.175781 61.554688 114.457031 63.007812 114.671875 64.363281 C 115.042969 66.894531 115.96875 69.425781 116.496094 69.425781 C 117.886719 69.425781 116.433594 63.75 114.332031 61.09375 L 113.746094 60.324219 Z M 114.023438 61.125 "/>
<path style=" stroke:none;fill-rule:nonzero;fill:rgb(0%,0%,0%);fill-opacity:1;" d="M 107.253906 63.285156 C 107.253906 64.335938 108.613281 66.433594 109.695312 67.050781 L 110.65625 67.605469 L 110.003906 65.96875 C 109.324219 64.273438 108.707031 63.40625 107.8125 62.914062 C 107.347656 62.667969 107.253906 62.730469 107.253906 63.285156 Z M 107.253906 63.285156 "/>
<path style=" stroke:none;fill-rule:nonzero;fill:rgb(0%,0%,0%);fill-opacity:1;" d="M 95.355469 67.386719 C 96.589844 68.097656 98.289062 68.652344 98.289062 68.34375 C 98.289062 68.097656 95.136719 66.648438 94.582031 66.648438 C 94.335938 66.648438 94.675781 66.988281 95.355469 67.386719 Z M 95.355469 67.386719 "/>
<path style=" stroke:none;fill-rule:nonzero;fill:rgb(0%,0%,0%);fill-opacity:1;" d="M 100.640625 69.488281 C 100.949219 69.949219 103.667969 71.183594 105.246094 71.554688 C 106.109375 71.738281 108.644531 72.109375 110.902344 72.386719 C 113.1875 72.632812 115.660156 73.066406 116.464844 73.28125 C 117.238281 73.527344 117.917969 73.683594 117.980469 73.621094 C 118.042969 73.558594 117.144531 73.097656 116.003906 72.570312 C 113.40625 71.398438 110.003906 70.535156 105.398438 69.917969 C 103.453125 69.640625 101.535156 69.363281 101.164062 69.300781 C 100.796875 69.238281 100.546875 69.332031 100.640625 69.488281 Z M 100.640625 69.488281 "/>
<path style=" stroke:none;fill-rule:nonzero;fill:rgb(0%,0%,0%);fill-opacity:1;" d="M 41.914062 65.167969 C 41.296875 65.878906 40.800781 66.585938 40.800781 66.773438 C 40.800781 67.234375 42.902344 65.105469 43.054688 64.457031 C 43.273438 63.625 43.148438 63.714844 41.914062 65.167969 Z M 41.914062 65.167969 "/>
<path style=" stroke:none;fill-rule:nonzero;fill:rgb(0%,0%,0%);fill-opacity:1;" d="M 46.765625 68.375 C 46.300781 68.5625 45.003906 70.628906 45.1875 70.84375 C 45.46875 71.089844 47.382812 69.578125 47.632812 68.871094 C 47.878906 68.191406 47.632812 68.035156 46.765625 68.375 Z M 46.765625 68.375 "/>
<path style=" stroke:none;fill-rule:nonzero;fill:rgb(0%,0%,0%);fill-opacity:1;" d="M 47.910156 73.066406 C 47.136719 73.558594 45.960938 74.578125 45.28125 75.289062 L 44.046875 76.613281 L 44.972656 76.398438 C 47.230469 75.84375 49.640625 73.835938 49.394531 72.695312 C 49.300781 72.261719 49.113281 72.292969 47.910156 73.066406 Z M 47.910156 73.066406 "/>
<path style=" stroke:none;fill-rule:nonzero;fill:rgb(0%,0%,0%);fill-opacity:1;" d="M 29.242188 73.621094 C 28.898438 74.484375 29.054688 75.8125 29.519531 76.214844 C 30.257812 76.828125 30.816406 75.289062 30.289062 74.054688 C 29.859375 73.035156 29.519531 72.882812 29.242188 73.621094 Z M 29.242188 73.621094 "/>
<path style=" stroke:none;fill-rule:nonzero;fill:rgb(0%,0%,0%);fill-opacity:1;" d="M 30.042969 79.917969 C 30.199219 82.167969 31.3125 85.285156 32.300781 86.085938 C 32.855469 86.550781 32.300781 83.402344 31.339844 80.53125 C 30.230469 77.261719 29.890625 77.078125 30.042969 79.917969 Z M 30.042969 79.917969 "/>
<path style=" stroke:none;fill-rule:nonzero;fill:rgb(0%,0%,0%);fill-opacity:1;" d="M 70.472656 82.847656 C 70.472656 83.339844 71.925781 85.039062 72.171875 84.789062 C 72.265625 84.699219 71.957031 84.144531 71.429688 83.554688 C 70.90625 83 70.472656 82.660156 70.472656 82.847656 Z M 70.472656 82.847656 "/>
<path style=" stroke:none;fill-rule:nonzero;fill:rgb(0%,0%,0%);fill-opacity:1;" d="M 86.453125 83.617188 C 85.835938 84.511719 84.84375 87.597656 85.125 87.84375 C 85.804688 88.523438 87.347656 85.191406 87.101562 83.589844 L 87.007812 82.847656 Z M 86.453125 83.617188 "/>
<path style=" stroke:none;fill-rule:nonzero;fill:rgb(0%,0%,0%);fill-opacity:1;" d="M 89.203125 86.828125 C 88.277344 88.371094 87.316406 91.300781 87.660156 91.609375 C 88.308594 92.257812 90.441406 87.597656 90.191406 86.027344 C 90.101562 85.40625 89.945312 85.53125 89.203125 86.828125 Z M 89.203125 86.828125 "/>
<path style=" stroke:none;fill-rule:nonzero;fill:rgb(0%,0%,0%);fill-opacity:1;" d="M 74.367188 87.320312 C 74.707031 87.878906 76.128906 89.386719 77.550781 90.683594 C 79.003906 91.980469 81.136719 93.953125 82.3125 95.097656 C 83.515625 96.269531 84.535156 97.132812 84.628906 97.042969 C 85 96.699219 84.257812 95.28125 82.960938 93.832031 C 81.042969 91.703125 75.386719 86.828125 74.523438 86.550781 L 73.8125 86.335938 Z M 74.367188 87.320312 "/>
<path style=" stroke:none;fill-rule:nonzero;fill:rgb(0%,0%,0%);fill-opacity:1;" d="M 47.167969 85.191406 C 46.640625 85.808594 46.363281 86.519531 46.363281 87.199219 C 46.363281 87.785156 46.425781 88.246094 46.488281 88.246094 C 46.734375 88.246094 48.21875 85.777344 48.402344 85.039062 C 48.652344 83.957031 48.15625 84.019531 47.167969 85.191406 Z M 47.167969 85.191406 "/>
<path style=" stroke:none;fill-rule:nonzero;fill:rgb(0%,0%,0%);fill-opacity:1;" d="M 40.644531 89.789062 C 40.304688 90.34375 40.800781 91.824219 41.605469 92.566406 C 42.4375 93.367188 42.53125 93.089844 42.035156 91.300781 C 41.664062 90.003906 40.984375 89.265625 40.644531 89.789062 Z M 40.644531 89.789062 "/>
<path style=" stroke:none;fill-rule:nonzero;fill:rgb(0%,0%,0%);fill-opacity:1;" d="M 51.125 94.292969 C 49.671875 95.835938 49.703125 96.734375 51.1875 95.3125 C 52.484375 94.046875 53.039062 93.183594 52.515625 93.183594 C 52.328125 93.183594 51.679688 93.675781 51.125 94.292969 Z M 51.125 94.292969 "/>
<path style=" stroke:none;fill-rule:nonzero;fill:rgb(0%,0%,0%);fill-opacity:1;" d="M 42.808594 96.175781 C 43.023438 97.410156 44.417969 100.1875 45.4375 101.515625 L 46.023438 102.285156 L 45.867188 101.050781 C 45.589844 99.109375 44.878906 97.195312 44.046875 96.082031 C 42.964844 94.695312 42.53125 94.726562 42.808594 96.175781 Z M 42.808594 96.175781 "/>
<path style=" stroke:none;fill-rule:nonzero;fill:rgb(0%,0%,0%);fill-opacity:1;" d="M 15.796875 84.265625 C 15.515625 85.128906 15.515625 85.191406 15.949219 84.820312 C 16.722656 84.175781 17.09375 83.308594 16.566406 83.308594 C 16.320312 83.308594 15.980469 83.742188 15.796875 84.265625 Z M 15.796875 84.265625 "/>
<path style=" stroke:none;fill-rule:nonzero;fill:rgb(0%,0%,0%);fill-opacity:1;" d="M 18.699219 85.625 C 18.269531 86.117188 17.957031 86.550781 18.019531 86.613281 C 18.269531 86.859375 19.195312 86.304688 19.503906 85.714844 C 20.03125 84.761719 19.566406 84.699219 18.699219 85.625 Z M 18.699219 85.625 "/>
<path style=" stroke:none;fill-rule:nonzero;fill:rgb(0%,0%,0%);fill-opacity:1;" d="M 16.628906 89.820312 C 16.320312 89.972656 15.949219 90.40625 15.761719 90.714844 C 15.453125 91.332031 15.453125 91.332031 16.535156 90.808594 C 17.125 90.53125 17.617188 90.097656 17.617188 89.882812 C 17.617188 89.417969 17.339844 89.386719 16.628906 89.820312 Z M 16.628906 89.820312 "/>
<path style=" stroke:none;fill-rule:nonzero;fill:rgb(0%,0%,0%);fill-opacity:1;" d="M 105.894531 88.617188 C 106.140625 89.972656 107.007812 91.734375 107.503906 91.886719 C 108.273438 92.132812 107.378906 88.433594 106.511719 87.878906 C 105.863281 87.445312 105.710938 87.628906 105.894531 88.617188 Z M 105.894531 88.617188 "/>
<path style=" stroke:none;fill-rule:nonzero;fill:rgb(0%,0%,0%);fill-opacity:1;" d="M 109.726562 88.339844 C 109.726562 89.789062 110.40625 93 110.871094 93.925781 L 111.367188 94.882812 L 111.644531 93.953125 C 112.015625 92.753906 111.738281 90.375 111.117188 89.050781 C 110.5 87.753906 109.726562 87.351562 109.726562 88.339844 Z M 109.726562 88.339844 "/>
<path style=" stroke:none;fill-rule:nonzero;fill:rgb(0%,0%,0%);fill-opacity:1;" d="M 113.652344 90.777344 C 113.46875 91.886719 113.960938 94.632812 114.363281 94.882812 C 114.734375 95.097656 115.074219 92.503906 114.828125 91.394531 C 114.734375 90.871094 114.457031 90.285156 114.242188 90.097656 C 113.898438 89.851562 113.777344 90.003906 113.652344 90.777344 Z M 113.652344 90.777344 "/>
<path style=" stroke:none;fill-rule:nonzero;fill:rgb(0%,0%,0%);fill-opacity:1;" d="M 102 91.425781 C 102 91.671875 102.277344 92.101562 102.617188 92.410156 C 103.203125 92.96875 103.238281 92.9375 103.238281 92.382812 C 103.238281 91.765625 102.710938 91.023438 102.246094 91.023438 C 102.125 91.023438 102 91.210938 102 91.425781 Z M 102 91.425781 "/>
<path style=" stroke:none;fill-rule:nonzero;fill:rgb(0%,0%,0%);fill-opacity:1;" d="M 101.382812 94.570312 C 102.15625 95.40625 103.636719 95.714844 102.957031 94.910156 C 102.742188 94.664062 102.15625 94.324219 101.628906 94.140625 L 100.640625 93.800781 Z M 101.382812 94.570312 "/>
<path style=" stroke:none;fill-rule:nonzero;fill:rgb(0%,0%,0%);fill-opacity:1;" d="M 106.945312 97.042969 C 106.945312 97.257812 111.519531 100.558594 112.355469 100.988281 C 113.589844 101.578125 114.980469 101.886719 114.980469 101.578125 C 114.980469 100.957031 112.695312 98.738281 111.457031 98.121094 C 110.34375 97.597656 106.945312 96.792969 106.945312 97.042969 Z M 106.945312 97.042969 "/>
<path style=" stroke:none;fill-rule:nonzero;fill:rgb(0%,0%,0%);fill-opacity:1;" d="M 62.808594 101.886719 C 62.375 102.410156 61.910156 104.601562 62.21875 104.601562 C 62.589844 104.601562 63.394531 102.6875 63.300781 102.070312 C 63.210938 101.484375 63.175781 101.453125 62.808594 101.886719 Z M 62.808594 101.886719 "/>
<path style=" stroke:none;fill-rule:nonzero;fill:rgb(0%,0%,0%);fill-opacity:1;" d="M 64.011719 105.710938 C 63.269531 106.636719 62.867188 107.902344 63.210938 108.242188 C 63.488281 108.550781 64.230469 107.4375 64.601562 106.175781 C 64.96875 104.785156 64.816406 104.660156 64.011719 105.710938 Z M 64.011719 105.710938 "/>
<path style=" stroke:none;fill-rule:nonzero;fill:rgb(0%,0%,0%);fill-opacity:1;" d="M 66.546875 107.777344 C 65.804688 108.765625 65.0625 110.710938 65.339844 110.988281 C 65.773438 111.417969 67.476562 108.335938 67.320312 107.4375 C 67.226562 107.039062 67.105469 107.097656 66.546875 107.777344 Z M 66.546875 107.777344 "/>
<path style=" stroke:none;fill-rule:nonzero;fill:rgb(0%,0%,0%);fill-opacity:1;" d="M 68.835938 111.914062 C 68.433594 112.5625 68 113.363281 67.875 113.703125 L 67.660156 114.320312 L 68.277344 113.703125 C 68.894531 113.117188 70.007812 110.773438 69.699219 110.773438 C 69.636719 110.773438 69.238281 111.296875 68.835938 111.914062 Z M 68.835938 111.914062 "/>
<path style=" stroke:none;fill-rule:nonzero;fill:rgb(0%,0%,0%);fill-opacity:1;" d="M 52.238281 116.480469 C 52.238281 116.605469 52.667969 117.3125 53.226562 118.054688 C 54.121094 119.320312 60.488281 124.839844 60.738281 124.59375 C 61.046875 124.285156 58.914062 121.199219 57.738281 120.273438 C 55.667969 118.609375 52.238281 116.234375 52.238281 116.480469 Z M 52.238281 116.480469 "/>
<path style=" stroke:none;fill-rule:nonzero;fill:rgb(0%,0%,0%);fill-opacity:1;" d="M 25.066406 96.390625 C 24.820312 96.671875 24.726562 96.976562 24.851562 97.101562 C 25.128906 97.378906 25.746094 96.699219 25.59375 96.269531 C 25.53125 96.023438 25.34375 96.054688 25.066406 96.390625 Z M 25.066406 96.390625 "/>
<path style=" stroke:none;fill-rule:nonzero;fill:rgb(0%,0%,0%);fill-opacity:1;" d="M 27.847656 98.582031 C 26.796875 99.785156 26.703125 99.972656 27.230469 99.972656 C 27.664062 99.972656 29.363281 98.273438 29.363281 97.84375 C 29.363281 97.226562 28.808594 97.503906 27.847656 98.582031 Z M 27.847656 98.582031 "/>
<path style=" stroke:none;fill-rule:nonzero;fill:rgb(0%,0%,0%);fill-opacity:1;" d="M 19.660156 99.261719 C 19.90625 100.679688 20.398438 101.328125 20.398438 100.25 C 20.398438 99.171875 20.058594 98.121094 19.71875 98.121094 C 19.566406 98.121094 19.535156 98.613281 19.660156 99.261719 Z M 19.660156 99.261719 "/>
<path style=" stroke:none;fill-rule:nonzero;fill:rgb(0%,0%,0%);fill-opacity:1;" d="M 28.898438 101.546875 C 27.695312 102.902344 27.632812 103.335938 28.808594 102.75 C 29.949219 102.132812 30.601562 101.453125 30.601562 100.835938 C 30.601562 99.972656 30.167969 100.15625 28.898438 101.546875 Z M 28.898438 101.546875 "/>
<path style=" stroke:none;fill-rule:nonzero;fill:rgb(0%,0%,0%);fill-opacity:1;" d="M 20.492188 107.070312 C 20.710938 110.308594 21.203125 112.316406 21.851562 112.316406 C 22.503906 112.316406 22.378906 108.613281 21.636719 106.542969 C 20.617188 103.613281 20.308594 103.738281 20.492188 107.070312 Z M 20.492188 107.070312 "/>
<path style=" stroke:none;fill-rule:nonzero;fill:rgb(0%,0%,0%);fill-opacity:1;" d="M 28.683594 106.082031 C 28.035156 106.484375 27.507812 107.039062 27.507812 107.285156 C 27.507812 107.625 27.695312 107.59375 28.375 107.097656 C 29.363281 106.421875 30.136719 105.554688 29.949219 105.402344 C 29.890625 105.339844 29.300781 105.648438 28.683594 106.082031 Z M 28.683594 106.082031 "/>
<path style=" stroke:none;fill-rule:nonzero;fill:rgb(0%,0%,0%);fill-opacity:1;" d="M 98.941406 108.765625 C 98.910156 110.800781 99.15625 112.003906 99.558594 112.003906 C 99.992188 112.003906 99.835938 109.226562 99.371094 107.996094 L 98.96875 106.914062 Z M 98.941406 108.765625 "/>
<path style=" stroke:none;fill-rule:nonzero;fill:rgb(0%,0%,0%);fill-opacity:1;" d="M 95.910156 110.492188 C 96.097656 112.652344 96.898438 115.089844 97.425781 115.089844 C 98.074219 115.089844 96.960938 109.476562 96.1875 108.859375 C 95.757812 108.488281 95.726562 108.671875 95.910156 110.492188 Z M 95.910156 110.492188 "/>
<path style=" stroke:none;fill-rule:nonzero;fill:rgb(0%,0%,0%);fill-opacity:1;" d="M 92.261719 113.765625 C 92.355469 114.257812 92.605469 114.753906 92.789062 114.9375 C 93.035156 115.152344 93.066406 115.058594 92.914062 114.691406 C 92.820312 114.382812 92.726562 113.855469 92.726562 113.515625 C 92.726562 113.210938 92.574219 112.929688 92.386719 112.929688 C 92.171875 112.929688 92.109375 113.238281 92.261719 113.765625 Z M 92.261719 113.765625 "/>
<path style=" stroke:none;fill-rule:nonzero;fill:rgb(0%,0%,0%);fill-opacity:1;" d="M 104.410156 113.394531 C 104.101562 113.855469 103.238281 117.40625 103.238281 118.175781 C 103.238281 119.257812 104.007812 118.421875 104.441406 116.851562 C 104.84375 115.523438 104.8125 112.808594 104.410156 113.394531 Z M 104.410156 113.394531 "/>
<path style=" stroke:none;fill-rule:nonzero;fill:rgb(0%,0%,0%);fill-opacity:1;" d="M 107.132812 116.695312 C 106.296875 118.144531 104.9375 122.433594 105.214844 122.742188 C 105.429688 122.929688 105.339844 123.050781 106.574219 121.109375 C 107.839844 119.042969 108.492188 117.46875 108.492188 116.324219 C 108.492188 115.03125 108.027344 115.152344 107.132812 116.695312 Z M 107.132812 116.695312 "/>
<path style=" stroke:none;fill-rule:nonzero;fill:rgb(0%,0%,0%);fill-opacity:1;" d="M 84.691406 117.34375 C 84.691406 117.835938 85.925781 119.503906 86.144531 119.289062 C 86.328125 119.132812 85.402344 117.34375 85 117.097656 C 84.84375 117.003906 84.691406 117.097656 84.691406 117.34375 Z M 84.691406 117.34375 "/>
<path style=" stroke:none;fill-rule:nonzero;fill:rgb(0%,0%,0%);fill-opacity:1;" d="M 88.089844 119.566406 C 88.089844 119.84375 90.65625 121.570312 90.8125 121.417969 C 90.902344 121.324219 90.71875 121.046875 90.378906 120.800781 C 89.574219 120.152344 88.089844 119.347656 88.089844 119.566406 Z M 88.089844 119.566406 "/>
<path style=" stroke:none;fill-rule:nonzero;fill:rgb(0%,0%,0%);fill-opacity:1;" d="M 94.488281 123.945312 C 95.046875 124.441406 96.558594 125.488281 97.890625 126.292969 C 99.21875 127.0625 100.761719 128.050781 101.351562 128.421875 L 102.433594 129.097656 L 101.8125 128.082031 C 100.546875 125.921875 97.242188 123.699219 94.550781 123.238281 L 93.5 123.082031 Z M 94.488281 123.945312 "/>
<path style=" stroke:none;fill-rule:nonzero;fill:rgb(0%,0%,0%);fill-opacity:1;" d="M 29.363281 122.527344 C 29.363281 123.300781 29.859375 124.039062 30.351562 124.039062 C 30.847656 124.039062 30.601562 122.898438 29.980469 122.34375 C 29.394531 121.785156 29.363281 121.816406 29.363281 122.527344 Z M 29.363281 122.527344 "/>
<path style=" stroke:none;fill-rule:nonzero;fill:rgb(0%,0%,0%);fill-opacity:1;" d="M 38.328125 124.625 C 37.832031 125.550781 37.957031 125.738281 38.636719 125.117188 C 39.285156 124.53125 39.441406 124.039062 38.945312 124.039062 C 38.789062 124.039062 38.511719 124.316406 38.328125 124.625 Z M 38.328125 124.625 "/>
<path style=" stroke:none;fill-rule:nonzero;fill:rgb(0%,0%,0%);fill-opacity:1;" d="M 31.527344 127.308594 C 31.527344 129.070312 33.195312 132.679688 34 132.679688 C 34.710938 132.679688 33.382812 128.914062 32.175781 127.433594 C 31.589844 126.691406 31.527344 126.691406 31.527344 127.308594 Z M 31.527344 127.308594 "/>
<path style=" stroke:none;fill-rule:nonzero;fill:rgb(0%,0%,0%);fill-opacity:1;" d="M 79.839844 131.199219 C 79.4375 131.722656 79.128906 133.296875 79.46875 133.296875 C 79.839844 133.296875 81.011719 131.691406 80.890625 131.320312 C 80.734375 130.828125 80.175781 130.765625 79.839844 131.199219 Z M 79.839844 131.199219 "/>
<path style=" stroke:none;fill-rule:nonzero;fill:rgb(0%,0%,0%);fill-opacity:1;" d="M 71.089844 133.726562 C 71.089844 134.097656 72.050781 136.074219 72.328125 136.226562 C 72.699219 136.445312 72.390625 134.5625 71.925781 133.972656 C 71.648438 133.636719 71.089844 133.449219 71.089844 133.726562 Z M 71.089844 133.726562 "/>
<path style=" stroke:none;fill-rule:nonzero;fill:rgb(0%,0%,0%);fill-opacity:1;" d="M 83.980469 134.871094 C 83.394531 135.210938 82.402344 136.96875 82.652344 137.214844 C 82.742188 137.308594 83.300781 136.90625 83.917969 136.289062 C 85.339844 134.871094 85.402344 134.066406 83.980469 134.871094 Z M 83.980469 134.871094 "/>
<path style=" stroke:none;fill-rule:nonzero;fill:rgb(0%,0%,0%);fill-opacity:1;" d="M 52.390625 132.957031 C 52.269531 133.914062 52.296875 134.714844 52.453125 134.871094 C 52.855469 135.269531 53.257812 132.464844 52.886719 131.816406 C 52.699219 131.476562 52.546875 131.785156 52.390625 132.957031 Z M 52.390625 132.957031 "/>
<path style=" stroke:none;fill-rule:nonzero;fill:rgb(0%,0%,0%);fill-opacity:1;" d="M 42.625 136.691406 C 43.273438 137.277344 43.890625 137.492188 43.890625 137.183594 C 43.890625 136.8125 42.871094 136.074219 42.40625 136.074219 C 41.976562 136.101562 42.035156 136.226562 42.625 136.691406 Z M 42.625 136.691406 "/>
<path style=" stroke:none;fill-rule:nonzero;fill:rgb(0%,0%,0%);fill-opacity:1;" d="M 53.9375 136.691406 C 53.8125 137.058594 53.78125 137.429688 53.875 137.523438 C 53.96875 137.585938 54.121094 137.367188 54.246094 137 C 54.367188 136.628906 54.398438 136.257812 54.308594 136.164062 C 54.214844 136.101562 54.058594 136.320312 53.9375 136.691406 Z M 53.9375 136.691406 "/>
<path style=" stroke:none;fill-rule:nonzero;fill:rgb(0%,0%,0%);fill-opacity:1;" d="M 46.023438 139.714844 C 46.890625 140.917969 48.3125 142.121094 49.796875 142.890625 C 50.785156 143.386719 51 143.417969 51 143.046875 C 51 141.90625 48.3125 139.714844 46.085938 139.003906 L 45.34375 138.789062 Z M 46.023438 139.714844 "/>
<path style=" stroke:none;fill-rule:nonzero;fill:rgb(0%,0%,0%);fill-opacity:1;" d="M 90.59375 137.277344 C 90.222656 137.769531 89.945312 138.417969 89.945312 138.757812 C 89.976562 139.28125 90.007812 139.28125 90.441406 138.695312 C 91.242188 137.675781 91.832031 136.382812 91.523438 136.382812 C 91.367188 136.382812 90.933594 136.78125 90.59375 137.277344 Z M 90.59375 137.277344 "/>
<path style=" stroke:none;fill-rule:nonzero;fill:rgb(0%,0%,0%);fill-opacity:1;" d="M 90.8125 141.84375 C 90.5625 142.152344 90.253906 142.738281 90.160156 143.140625 C 89.976562 143.847656 90.007812 143.847656 90.902344 142.984375 C 91.769531 142.152344 92.078125 141.320312 91.550781 141.320312 C 91.398438 141.320312 91.058594 141.566406 90.8125 141.84375 Z M 90.8125 141.84375 "/>
<path style=" stroke:none;fill-rule:nonzero;fill:rgb(0%,0%,0%);fill-opacity:1;" d="M 61.695312 152.613281 C 62.003906 153.445312 63.085938 154.957031 63.269531 154.800781 C 63.488281 154.585938 62.558594 152.921875 61.972656 152.425781 C 61.570312 152.085938 61.507812 152.117188 61.695312 152.613281 Z M 61.695312 152.613281 "/>
<path style=" stroke:none;fill-rule:nonzero;fill:rgb(0%,0%,0%);fill-opacity:1;" d="M 73.410156 153.660156 C 72.574219 154.585938 73.039062 154.710938 73.871094 153.816406 C 74.273438 153.382812 74.460938 153.042969 74.273438 153.042969 C 74.121094 153.042969 73.71875 153.320312 73.410156 153.660156 Z M 73.410156 153.660156 "/>
<path style=" stroke:none;fill-rule:nonzero;fill:rgb(0%,0%,0%);fill-opacity:1;" d="M 66.050781 157.609375 C 67.9375 160.851562 69.113281 161.777344 68.308594 159.398438 C 68.03125 158.503906 65.898438 156.128906 65.371094 156.128906 C 65.28125 156.128906 65.589844 156.808594 66.050781 157.609375 Z M 66.050781 157.609375 "/>
</g>
</svg>
