<svg xmlns="http://www.w3.org/2000/svg" viewBox="0 0 520.15 443.15"><defs><style>.cls-1{fill:#c5ae65;}.cls-2{fill:#fce7be;}</style></defs><g id="Capa_2" data-name="Capa 2"><g id="Capa_1-2" data-name="Capa 1"><path class="cls-1" d="M124.42,196.85c1.18,10.73,2.35,21.11,3.44,31.49,1,9.52-1.3,18.17-6.24,26.4a93.64,93.64,0,0,0-12.05,30c-.74,3.76-1.09,7.61-1.78,12.53-2.55-4.23-5.09-7.65-6.81-11.45-6.09-13.43-5.62-27.36-2.29-41.32,3.63-15.29,11.51-28.54,20.58-41.15C120.82,201.21,122.56,199.19,124.42,196.85Z"/><path class="cls-1" d="M112.88,160.71c-.58,10.47-8.36,15.57-14.9,21.92,10-3.45,19.19-.12,29,2.62-17.36,13.82-27,32.65-36.83,51.39C73.76,220.08,81.92,173.89,112.88,160.71Z"/><path class="cls-1" d="M138.37,244.2c.81,10.85,1.66,21.69,2.43,32.54.82,11.54-4.63,21.44-8.27,31.85-2.19,6.28-3.43,12.89-5.09,19.35-6.44-1.78-13.26-11.3-13.51-19.61-.48-16.19,4.9-30.82,12.11-44.9,3.38-6.62,7.32-13,11-19.42Z"/><path class="cls-1" d="M88.37,265.17c-9.19-5.35-18.35-10.6-27.43-16-6.84-4-9.26-10.95-10.63-18.1-1.81-9.45-3.48-18.86-9.08-27l.73-.9c5.53,3.34,11.22,6.44,16.54,10.09,12.61,8.65,21.46,20.66,29,33.68.83,1.43.77,3.48.81,5.24C88.45,256.63,88.37,261.09,88.37,265.17Z"/><path class="cls-1" d="M64,118.27c3.26,5.81,6.36,10.64,8.76,15.8a25.45,25.45,0,0,1,2,15.29c-.85,5,2.06,9.22,7.69,11.33-.63-12.81,9.26-20.58,14.76-30.76.43,5.66,1,11.3,1.25,17,.27,7.38-3.09,13.34-7.71,18.87-3.42,4.09-6.39,8.56-9.52,12.89a26.93,26.93,0,0,0-1.56,3.18c-5.87-8-11.06-14.64-15.7-21.62-4.39-6.63-3.93-14.29-3.1-21.76C61.61,132.05,62.83,125.69,64,118.27Z"/><path class="cls-1" d="M154.23,352.05c-6-.93-11.88-1.63-17.65-2.93-1.09-.25-2.07-2.8-2.39-4.42-2.15-10.78.43-21,4.29-30.93,3.41-8.77,7.13-17.43,10.78-26.31C155.31,300.68,158.39,338.87,154.23,352.05Z"/><path class="cls-1" d="M128.71,348.27c-9.78-2.42-18.85-4.48-27.81-7a20.88,20.88,0,0,1-7.38-4.15c-7.24-6.05-14.27-12.35-21.16-18.91,19.14-.75,37.31,1.07,51.29,16.33C127.08,338.31,128,342.71,128.71,348.27Z"/><path class="cls-1" d="M74.91,217.71c-8.83-6.8-16.37-14.12-18.91-25.5-2.37-10.6-5.34-21.08-7.92-31.16C66,171.55,80.15,186.78,74.91,217.71Z"/><path class="cls-1" d="M94.5,285.4c-7.35-1.74-14.8-3.51-22.26-5.25C64.6,278.37,58.86,274,54,267.89,49.81,262.54,45,257.69,40.75,253,58.89,252.43,90.29,271.14,94.5,285.4Z"/><path class="cls-1" d="M58.89,286.71c9,1.33,18.22,1.61,26.77,4.25,11.31,3.49,19.54,11.13,22.19,23.2C87.5,312.72,72.39,301.62,58.89,286.71Z"/><path class="cls-1" d="M394.66,196.53c19.81,22,33.51,46.26,30.42,77.12a39.63,39.63,0,0,1-8,20.29c-2.68-7.9-5-16.36-8.44-24.31-3-6.93-7.19-13.37-11.1-19.88-4.79-8-5.65-16.64-5-25.61C393.14,215,393.92,205.86,394.66,196.53Z"/><path class="cls-1" d="M404.24,159.5c20.32,9,29.89,25.19,33.18,46.19,1.69,10.72-.12,20.17-6.61,28.49-11.06-18-22-36.07-39.38-49.37,9.58-3.76,18.83-7.16,29.09-3.15l.47-1.33a46.77,46.77,0,0,0-4.26-3.47C408.85,171.84,404.94,166.55,404.24,159.5Z"/><path class="cls-1" d="M397.88,328a75.47,75.47,0,0,0-9.22-27.34c-7.7-13.42-8-28-6.38-42.78.49-4.44.87-8.89,1.34-13.81,7.43,10.11,14.3,20.1,19.15,31.33,3.56,8.24,6.73,16.6,7.49,25.68C411.38,314.57,409.36,319.14,397.88,328Z"/><path class="cls-1" d="M477.18,198.92c-5.08,9.34-5.72,19.59-7.19,29.64-1.25,8.49-5.35,14.84-13.1,19.24s-15.13,9.91-22.82,15c0-.75,0-2.12,0-3.49-.06-2.36.26-4.82-.32-7-1.25-4.77-.1-8.74,2.65-12.64,2.14-3,3.87-6.37,5.81-9.56C450.65,216.2,462.72,206.34,477.18,198.92Z"/><path class="cls-1" d="M418.46,126.92c5.65,10.82,15.29,18.17,15.91,30.41,5.43-2.78,7.61-6.45,6.67-11.91-1.39-8.09.85-15.29,4.77-22.18l4.51-7.89c1.43,6.23,2.53,11.74,4,17.16,3.23,12.11.93,22.86-7.09,32.57-3.32,4-6,8.54-8.76,12.48C434.08,172.43,430,167,425.3,162.2c-7.74-8-8-17.86-7.73-27.95C417.63,132.16,418.07,130.08,418.46,126.92Z"/><path class="cls-1" d="M373.88,287c5.16,11.21,10.32,21.84,15,32.68a50.87,50.87,0,0,1,3.48,26c-.24,2.17-1,3.63-3.5,4-4.53.75-9,1.77-13.52,2.73-2,.43-2.8-.24-3.39-2.23-3-10.1-3.07-20.41-2.08-30.72C370.86,308.8,372.45,298.23,373.88,287Z"/><path class="cls-1" d="M452.46,314.74c-13.08,17.36-36.91,31.38-54.17,32.18-.47-8.56,4.1-14.48,10.25-19.57,8.29-6.87,17.62-11.19,28.5-11.77Z"/><path class="cls-1" d="M468.17,156.26c-1.92,10.65-3.8,21.25-5.75,31.84A35.29,35.29,0,0,1,451,208.59c-2,1.8-4,3.63-6,5.48-1.8-11.46-4.4-22.69,1.48-33.68C451.78,170.42,458.69,162,468.17,156.26Z"/><path class="cls-1" d="M429.29,282.83c1.93-12.77,30.77-32.22,52-35.35-5.64,7.1-11.23,14.84-17.63,21.84-2.79,3.06-7,5.24-11,6.66C445,278.71,437.09,280.6,429.29,282.83Z"/><path class="cls-1" d="M417.53,312.05c3-16.15,15.05-27.95,47.08-28.35C452.05,298.29,437.61,310,417.53,312.05Z"/><path class="cls-2" d="M244.77,146.14c.67,3.22,1.37,6.42,2,9.64.91,4.72,2.57,9.47,2.47,14.18-.22,11.31-10.75,20.36-22.08,19.78-11.62-.6-20-9.93-19.18-21.83.24-3.51,1.61-6.95,2.56-10.4.5-1.79,1.41-3.47,1.76-5.28,1.07-5.43.43-6.58-4.62-8.77A27,27,0,0,1,193,128.28c-2.28,3.89-5.66,4.09-9.16,3.5-9.44-1.61-15.21-9.7-15.16-19.75.07-17,17.9-29.73,31.7-28.53-.51,2-1,4-1.48,5.78l-5.41,1c2.81,4.77,2.69,3.94,7.28,2.85,4.09-1,4.68-3.38,5.86-6.4,3.12-8,13.74-13.68,24.18-13.16,2.68.13,5.35.71,8,1.07-.79,3.28-1.56,6.14-2.15,9a12.31,12.31,0,0,0,.16,3.08h6c5.85-16.82,24.59-21.48,37-9l-6,9.4,7.49,4.54c.88-6.52,3.76-12,10.47-14.94,10.48-4.6,22.09.7,24.72,11.77.63,2.67,1.68,3.06,4.12,3.45,2.93.47,5.69,2.08,8.66,3.25,1.63-2.93,1-4.84-3.06-6.18-1.58-.53-2.38-3.41-3.54-5.22l1-1.34c2.94.56,6,.76,8.8,1.72,13.08,4.48,21.83,17.13,21,30-.47,7.53-5.79,14-13.25,15-3.07.45-6.35-.6-10.55-1.08-4.08,5.36-10.37,9.75-18.89,9.71-8.34,0-14.7-4-19.87-11.37-.57,12.39-5.65,21.53-16.27,26.66-8,3.85-18.5,4.43-28.68-7.36Z"/><path class="cls-2" d="M335.45,139.66,346.54,137c.07,1.38.2,2.79.2,4.21.07,48.69.25,97.38.09,146.07A280.52,280.52,0,0,0,351.32,339c.72,3.93-.81,6.18-4.27,7-9.65,2.34-19.27,5.11-29.07,6.46-22.31,3.05-44.8,3.17-67.27,2.34-18.56-.69-37.13-1.76-55.17-6.75-9.87-2.74-10.19-3.57-8.58-13.53,2.15-13.28,4.65-26.54,3.49-40.57-1.5-.13-3.07-.38-4.64-.37-5.23,0-8.95-2.43-11.83-6.63-9.15-13.32-14.17-28.25-16.74-44-3.7-22.73-3.62-45.51,1.51-68,1.23-5.41,4.28-10.58,7.3-15.35,2.49-3.94,6.76-5.73,11.67-5.41,4.08.27,8.17.4,12.86.62V140.94c4.29,2.83,8,5.1,11.4,7.67.59.44.42,2.19.24,3.29-1,6.6-2.68,13.16-3.07,19.79-.25,4.21,1.33,8.53,2.08,12.8.62,3.53,1.74,7.07,1.75,10.6.12,37.33.05,74.66,0,112,0,1.71.36,3.59-2.28,3.86-.38,0-1.06,1.45-.9,1.67a4.1,4.1,0,0,0,2.18,1.58c5.66.9,11.33,1.76,17,2.41a385.63,385.63,0,0,0,65.78,2.21c16.91-.94,33.77-2.92,50.64-4.49a14.33,14.33,0,0,0,3.89-.87c-4.26-2-3.86-7.09-3.86-10.69q-.08-80,0-159.93ZM190.38,283.23V168.94c-3.7,0-7.1.32-10.41-.08-4.1-.5-5.73,1.46-6.89,5A110.93,110.93,0,0,0,168,203.18c-1.36,27.45,2.9,53.66,17,77.75C186.22,283.05,187.54,284.21,190.38,283.23Zm150.48,52.83c-.29-4.81-.14-8.59-.39-12.76-2.24,0-3.7,1.12-3.86,2.24-.41,2.84-7.86,5.1-9.57,5.3-14.71,1.68-29.39,3.81-44.14,4.77a312.77,312.77,0,0,1-65.63-3.08c-6.22-.9-12.4-2-18.81-3.13-.31,2.32-.58,4.37-1,7.11C245.36,346.16,292.85,346.36,340.86,336.06Z"/><path class="cls-2" d="M214.93,194.86c2.95.54,7.09,2,7.08,5.38,0,35.42.09,107,0,107.61-1.38,0-5.35-.26-7-.26Z"/><path class="cls-2" d="M240.23,196.86c3,.54,7.08,2,7.08,5.38,0,35.42.09,107,0,107.61-1.38,0-5.36-.26-7-.26Z"/><path class="cls-2" d="M265.53,185.25c3,.61,7.1,1.71,7.1,2.29,0,40.06.06,122.62-.06,123.31-1.38,0-5.36-.29-7-.29Z"/><path class="cls-2" d="M297.94,196.86c-2.95.54-7.08,2-7.08,5.38,0,35.42-.09,107,0,107.61,1.38,0,5.35-.26,7-.26Z"/><path class="cls-2" d="M323.24,194.86c-2.95.54-7.09,2-7.09,5.38,0,35.42-.08,107,.05,107.61,1.37,0,5.35-.26,7-.26Z"/><path class="cls-2" d="M276.93,35.84l-6.27-3.54a9.36,9.36,0,0,0-9.17,0l-6.27,3.54,1.35-8.4a9.35,9.35,0,0,0-2.47-7.92l-5.58-5.83,7.18-1.12a9.33,9.33,0,0,0,7-5.32L266.07,0l3.34,7.25a9.32,9.32,0,0,0,7,5.32l7.18,1.12-5.58,5.83a9.35,9.35,0,0,0-2.47,7.92Z"/><path class="cls-2" d="M169.75,72.48l-6.27-3.54a9.36,9.36,0,0,0-9.17,0l-6.26,3.54,1.34-8.4a9.35,9.35,0,0,0-2.47-7.92l-5.58-5.83,7.18-1.12a9.32,9.32,0,0,0,7-5.32l3.34-7.25,3.33,7.25a9.33,9.33,0,0,0,7,5.32l7.18,1.12-5.58,5.83a9.35,9.35,0,0,0-2.46,7.92Z"/><path class="cls-2" d="M384.1,72.48l-6.26-3.54a9.36,9.36,0,0,0-9.17,0l-6.27,3.54,1.34-8.4a9.32,9.32,0,0,0-2.47-7.92l-5.57-5.83,7.18-1.12a9.33,9.33,0,0,0,7-5.32l3.33-7.25,3.34,7.25a9.3,9.3,0,0,0,7,5.32l7.19,1.12-5.58,5.83a9.32,9.32,0,0,0-2.47,7.92Z"/><path class="cls-2" d="M230,399.51v-9.28c3.25-.26,5.7.32,6,3.95C236.32,397.63,234.22,399.49,230,399.51Z"/><path class="cls-2" d="M133.59,404.11V397c3.92-.11,6.09,1.38,5.89,4.08C139.2,404.69,136.47,404.21,133.59,404.11Z"/><path class="cls-2" d="M134.37,388.33v-7.9c2.85.2,5.17,1,5.24,3.87C139.69,387.47,137.26,388.23,134.37,388.33Z"/><path class="cls-2" d="M383.72,388.05V380.5c2.8-.72,4.82-.16,5.17,2.94C389.29,386.89,387.2,388,383.72,388.05Z"/><path class="cls-2" d="M459.28,411.05c-24.94,5.64-86.26,16-110,19.08-36.58,4.73-58.5,6.26-92.54,6-31.21-.21-91.21-4.43-122-9.32C110.37,423,86.21,418.2,62.59,411c-5.31-1.63-5.37-1.91-5.37-7.3,0-21.1-.08-42.2-.14-63.3v-1.91c66,22.17,134.09,29.62,202.84,29.84S396.71,360,463.08,339V361c0,14.85-.06,29.71.11,44.57,0,3.11-.73,4.74-3.91,5.51M229.67,409l1.31-.36a22.69,22.69,0,0,1,1.49,2.18c1.82,3.41,3.49,6.9,5.44,10.24.62,1.07,1.85,2.42,2.89,2.51,3.76.3,7.56.11,11.95.11l-10.73-19c5-3.62,7.35-8.33,5.82-14.33-1.46-5.72-5.77-8.77-11.28-9.6-5.83-.89-11.77-1-18.21-1.54v43.43h11.32ZM146,392.83c1.55-1.85,3.41-3.32,4.29-5.24,2.85-6.22.34-12.65-6.37-14.69-6.45-1.95-13.25-2.69-20.33-4-.81,14.75-1.56,28.63-2.35,43,6.77.74,13,1.79,19.34,2a10.77,10.77,0,0,0,10.75-8.23C152.26,401,151,395,146,392.83Zm226.75,22.6c7.3-1.3,13.94-2.17,20.41-3.73,5.32-1.28,8.58-5.09,9.06-10.65.43-5-2-8.53-6.61-10.59.38-.46.6-.76.85-1,3.81-3.88,4.85-8.17,2.92-12.58-2.06-4.73-5.93-6.62-10.85-6.29-5.31.35-10.6,1-15.78,1.54Zm-39.89-38.49c-.07,1.39-.2,2.61-.17,3.82.19,7.6.37,15.2.64,22.8.3,8.76,5.57,15.07,13,15.7,9.59.8,18.5-4.86,19.23-13.72.87-10.47.21-21.07.21-32.06l-11,1.22c0,7.24,0,14.08,0,20.92a75.86,75.86,0,0,1-.24,8.93c-.35,2.91-2.66,4.65-5.27,4-1.7-.42-3.46-2.53-4.24-4.3s-.3-3.92-.3-5.91c0-7.44,0-14.87,0-22.69Zm-120,34.79H199.55v-7.55l10.8.6v-9.31l-10.19-1.17v-5.67l12.35.75c.27-3.74.5-6.91.74-10.32l-24.56-1.85c-.55,14.71-1.08,29-1.63,43.51l25.24,1.7C212.48,418.77,212.63,415.59,212.82,411.73Zm-29.47-35L158.1,374c-.68,14.72-1.32,28.74-2,43.24l25,2.82c.28-3.65.52-6.92.78-10.32l-13.11-1.27v-7l10.11.71v-9L169.53,392v-6.44c2.25.22,4.21.46,6.17.61s4.15.26,6.47.4C182.54,383.42,182.9,380.47,183.35,376.7Zm118.47,34.4c-9.31,2.43-12.45,2-15.51-1.88a12.86,12.86,0,0,1-.54-14.1c4.06-6.32,10-5.25,15.83-3.25v-12c-13.47-1.59-22.26,2.43-27.07,12.2-4.48,9.09-3.06,19.59,3.31,26,4.63,4.69,14.92,7.84,24,3.63Zm16.35-32.21c-3.18,0-5.65.09-8.12,0s-3.48,1-3.43,3.53c.24,12.94.36,25.89.55,38.84,0,.32.31.63.56,1.12l23.14-1.81V410.4l-12.7.8Z"/><path class="cls-2" d="M51.12,364.73,5.58,368.44l19,23.42a9.42,9.42,0,0,1,.67,10.9L0,443.15l79.41-5.65a2.43,2.43,0,0,0,1.39-4.28L54.53,415.88A9.15,9.15,0,0,1,51.31,409Z"/><path class="cls-2" d="M469,364.73l45.54,3.71-19,23.42a9.42,9.42,0,0,0-.67,10.9l25.2,40.39-79.41-5.65a2.43,2.43,0,0,1-1.39-4.28l26.26-17.34a9.13,9.13,0,0,0,3.23-6.93Z"/><path class="cls-2" d="M383.38,405.17V398c3.91-.12,5.6.36,5.92,3.11C389.73,404.77,386.25,405.27,383.38,405.17Z"/><path class="cls-2" d="M134.24,404.11V397c3.91-.11,6.09,1.38,5.88,4.08C139.85,404.69,137.11,404.21,134.24,404.11Z"/></g></g></svg>